G04 #@! TF.GenerationSoftware,KiCad,Pcbnew,(5.0.0)*
G04 #@! TF.CreationDate,2018-08-22T23:15:02+02:00*
G04 #@! TF.ProjectId,SAML_BreakoutBoard,53414D4C5F427265616B6F7574426F61,rev?*
G04 #@! TF.SameCoordinates,Original*
G04 #@! TF.FileFunction,Soldermask,Bot*
G04 #@! TF.FilePolarity,Negative*
%FSLAX46Y46*%
G04 Gerber Fmt 4.6, Leading zero omitted, Abs format (unit mm)*
G04 Created by KiCad (PCBNEW (5.0.0)) date 08/22/18 23:15:02*
%MOMM*%
%LPD*%
G01*
G04 APERTURE LIST*
%ADD10C,0.150000*%
%ADD11O,1.801600X1.801600*%
%ADD12R,1.801600X1.801600*%
G04 APERTURE END LIST*
D10*
X127905032Y-120437666D02*
X127428842Y-120437666D01*
X128035985Y-120723380D02*
X127577651Y-119723380D01*
X127369318Y-120723380D01*
X127053842Y-119723380D02*
X126482413Y-119723380D01*
X126893127Y-120723380D02*
X126768127Y-119723380D01*
X126315747Y-120675761D02*
X126178842Y-120723380D01*
X125940747Y-120723380D01*
X125839556Y-120675761D01*
X125785985Y-120628142D01*
X125726461Y-120532904D01*
X125714556Y-120437666D01*
X125750270Y-120342428D01*
X125791937Y-120294809D01*
X125881223Y-120247190D01*
X126065747Y-120199571D01*
X126155032Y-120151952D01*
X126196699Y-120104333D01*
X126232413Y-120009095D01*
X126220508Y-119913857D01*
X126160985Y-119818619D01*
X126107413Y-119771000D01*
X126006223Y-119723380D01*
X125768127Y-119723380D01*
X125631223Y-119771000D01*
X125333604Y-120437666D02*
X124857413Y-120437666D01*
X125464556Y-120723380D02*
X125006223Y-119723380D01*
X124797889Y-120723380D01*
X124464556Y-120723380D02*
X124339556Y-119723380D01*
X124095508Y-120437666D01*
X123672889Y-119723380D01*
X123797889Y-120723380D01*
X122845508Y-120723380D02*
X123321699Y-120723380D01*
X123196699Y-119723380D01*
X122446699Y-119818619D02*
X122393127Y-119771000D01*
X122291937Y-119723380D01*
X122053842Y-119723380D01*
X121964556Y-119771000D01*
X121922889Y-119818619D01*
X121887175Y-119913857D01*
X121899080Y-120009095D01*
X121964556Y-120151952D01*
X122607413Y-120723380D01*
X121988366Y-120723380D01*
X121035985Y-120723380D02*
X121607413Y-120723380D01*
X121321699Y-120723380D02*
X121196699Y-119723380D01*
X121309794Y-119866238D01*
X121416937Y-119961476D01*
X121518127Y-120009095D01*
X119964556Y-119771000D02*
X120053842Y-119723380D01*
X120196699Y-119723380D01*
X120345508Y-119771000D01*
X120452651Y-119866238D01*
X120512175Y-119961476D01*
X120583604Y-120151952D01*
X120601461Y-120294809D01*
X120577651Y-120485285D01*
X120541937Y-120580523D01*
X120458604Y-120675761D01*
X120321699Y-120723380D01*
X120226461Y-120723380D01*
X120077651Y-120675761D01*
X120024080Y-120628142D01*
X119982413Y-120294809D01*
X120172889Y-120294809D01*
X119577651Y-119723380D02*
X119035985Y-120723380D01*
X118910985Y-119723380D02*
X119702651Y-120723380D01*
X118625270Y-119723380D02*
X118083604Y-120723380D01*
X117958604Y-119723380D02*
X118750270Y-120723380D01*
X128232413Y-121849571D02*
X128095508Y-121897190D01*
X128053842Y-121944809D01*
X128018127Y-122040047D01*
X128035985Y-122182904D01*
X128095508Y-122278142D01*
X128149080Y-122325761D01*
X128250270Y-122373380D01*
X128631223Y-122373380D01*
X128506223Y-121373380D01*
X128172889Y-121373380D01*
X128083604Y-121421000D01*
X128041937Y-121468619D01*
X128006223Y-121563857D01*
X128018127Y-121659095D01*
X128077651Y-121754333D01*
X128131223Y-121801952D01*
X128232413Y-121849571D01*
X128565747Y-121849571D01*
X127631223Y-122373380D02*
X127547889Y-121706714D01*
X127571699Y-121897190D02*
X127512175Y-121801952D01*
X127458604Y-121754333D01*
X127357413Y-121706714D01*
X127262175Y-121706714D01*
X126625270Y-122325761D02*
X126726461Y-122373380D01*
X126916937Y-122373380D01*
X127006223Y-122325761D01*
X127041937Y-122230523D01*
X126994318Y-121849571D01*
X126934794Y-121754333D01*
X126833604Y-121706714D01*
X126643127Y-121706714D01*
X126553842Y-121754333D01*
X126518127Y-121849571D01*
X126530032Y-121944809D01*
X127018127Y-122040047D01*
X125726461Y-122373380D02*
X125660985Y-121849571D01*
X125696699Y-121754333D01*
X125785985Y-121706714D01*
X125976461Y-121706714D01*
X126077651Y-121754333D01*
X125720508Y-122325761D02*
X125821699Y-122373380D01*
X126059794Y-122373380D01*
X126149080Y-122325761D01*
X126184794Y-122230523D01*
X126172889Y-122135285D01*
X126113366Y-122040047D01*
X126012175Y-121992428D01*
X125774080Y-121992428D01*
X125672889Y-121944809D01*
X125250270Y-122373380D02*
X125125270Y-121373380D01*
X125107413Y-121992428D02*
X124869318Y-122373380D01*
X124785985Y-121706714D02*
X125214556Y-122087666D01*
X124297889Y-122373380D02*
X124387175Y-122325761D01*
X124428842Y-122278142D01*
X124464556Y-122182904D01*
X124428842Y-121897190D01*
X124369318Y-121801952D01*
X124315747Y-121754333D01*
X124214556Y-121706714D01*
X124071699Y-121706714D01*
X123982413Y-121754333D01*
X123940747Y-121801952D01*
X123905032Y-121897190D01*
X123940747Y-122182904D01*
X124000270Y-122278142D01*
X124053842Y-122325761D01*
X124155032Y-122373380D01*
X124297889Y-122373380D01*
X123024080Y-121706714D02*
X123107413Y-122373380D01*
X123452651Y-121706714D02*
X123518127Y-122230523D01*
X123482413Y-122325761D01*
X123393127Y-122373380D01*
X123250270Y-122373380D01*
X123149080Y-122325761D01*
X123095508Y-122278142D01*
X122690747Y-121706714D02*
X122309794Y-121706714D01*
X122506223Y-121373380D02*
X122613366Y-122230523D01*
X122577651Y-122325761D01*
X122488366Y-122373380D01*
X122393127Y-122373380D01*
X120899080Y-121849571D02*
X120762175Y-121897190D01*
X120720508Y-121944809D01*
X120684794Y-122040047D01*
X120702651Y-122182904D01*
X120762175Y-122278142D01*
X120815747Y-122325761D01*
X120916937Y-122373380D01*
X121297889Y-122373380D01*
X121172889Y-121373380D01*
X120839556Y-121373380D01*
X120750270Y-121421000D01*
X120708604Y-121468619D01*
X120672889Y-121563857D01*
X120684794Y-121659095D01*
X120744318Y-121754333D01*
X120797889Y-121801952D01*
X120899080Y-121849571D01*
X121232413Y-121849571D01*
X120155032Y-122373380D02*
X120244318Y-122325761D01*
X120285985Y-122278142D01*
X120321699Y-122182904D01*
X120285985Y-121897190D01*
X120226461Y-121801952D01*
X120172889Y-121754333D01*
X120071699Y-121706714D01*
X119928842Y-121706714D01*
X119839556Y-121754333D01*
X119797889Y-121801952D01*
X119762175Y-121897190D01*
X119797889Y-122182904D01*
X119857413Y-122278142D01*
X119910985Y-122325761D01*
X120012175Y-122373380D01*
X120155032Y-122373380D01*
X118964556Y-122373380D02*
X118899080Y-121849571D01*
X118934794Y-121754333D01*
X119024080Y-121706714D01*
X119214556Y-121706714D01*
X119315747Y-121754333D01*
X118958604Y-122325761D02*
X119059794Y-122373380D01*
X119297889Y-122373380D01*
X119387175Y-122325761D01*
X119422889Y-122230523D01*
X119410985Y-122135285D01*
X119351461Y-122040047D01*
X119250270Y-121992428D01*
X119012175Y-121992428D01*
X118910985Y-121944809D01*
X118488366Y-122373380D02*
X118405032Y-121706714D01*
X118428842Y-121897190D02*
X118369318Y-121801952D01*
X118315747Y-121754333D01*
X118214556Y-121706714D01*
X118119318Y-121706714D01*
X117440747Y-122373380D02*
X117315747Y-121373380D01*
X117434794Y-122325761D02*
X117535985Y-122373380D01*
X117726461Y-122373380D01*
X117815747Y-122325761D01*
X117857413Y-122278142D01*
X117893127Y-122182904D01*
X117857413Y-121897190D01*
X117797889Y-121801952D01*
X117744318Y-121754333D01*
X117643127Y-121706714D01*
X117452651Y-121706714D01*
X117363366Y-121754333D01*
X128869318Y-125673380D02*
X128744318Y-124673380D01*
X128500270Y-125387666D01*
X128077651Y-124673380D01*
X128202651Y-125673380D01*
X127297889Y-125673380D02*
X127232413Y-125149571D01*
X127268127Y-125054333D01*
X127357413Y-125006714D01*
X127547889Y-125006714D01*
X127649080Y-125054333D01*
X127291937Y-125625761D02*
X127393127Y-125673380D01*
X127631223Y-125673380D01*
X127720508Y-125625761D01*
X127756223Y-125530523D01*
X127744318Y-125435285D01*
X127684794Y-125340047D01*
X127583604Y-125292428D01*
X127345508Y-125292428D01*
X127244318Y-125244809D01*
X126916937Y-125673380D02*
X126309794Y-125006714D01*
X126833604Y-125006714D02*
X126393127Y-125673380D01*
X126012175Y-125673380D02*
X125928842Y-125006714D01*
X125887175Y-124673380D02*
X125940747Y-124721000D01*
X125899080Y-124768619D01*
X125845508Y-124721000D01*
X125887175Y-124673380D01*
X125899080Y-124768619D01*
X125535985Y-125673380D02*
X125452651Y-125006714D01*
X125464556Y-125101952D02*
X125410985Y-125054333D01*
X125309794Y-125006714D01*
X125166937Y-125006714D01*
X125077651Y-125054333D01*
X125041937Y-125149571D01*
X125107413Y-125673380D01*
X125041937Y-125149571D02*
X124982413Y-125054333D01*
X124881223Y-125006714D01*
X124738366Y-125006714D01*
X124649080Y-125054333D01*
X124613366Y-125149571D01*
X124678842Y-125673380D01*
X123815747Y-125625761D02*
X123916937Y-125673380D01*
X124107413Y-125673380D01*
X124196699Y-125625761D01*
X124232413Y-125530523D01*
X124184794Y-125149571D01*
X124125270Y-125054333D01*
X124024080Y-125006714D01*
X123833604Y-125006714D01*
X123744318Y-125054333D01*
X123708604Y-125149571D01*
X123720508Y-125244809D01*
X124208604Y-125340047D01*
X122583604Y-125673380D02*
X122458604Y-124673380D01*
X122077651Y-124673380D01*
X121988366Y-124721000D01*
X121946699Y-124768619D01*
X121910985Y-124863857D01*
X121928842Y-125006714D01*
X121988366Y-125101952D01*
X122041937Y-125149571D01*
X122143127Y-125197190D01*
X122524080Y-125197190D01*
X121440747Y-125673380D02*
X121530032Y-125625761D01*
X121565747Y-125530523D01*
X121458604Y-124673380D01*
X120631223Y-125673380D02*
X120565747Y-125149571D01*
X120601461Y-125054333D01*
X120690747Y-125006714D01*
X120881223Y-125006714D01*
X120982413Y-125054333D01*
X120625270Y-125625761D02*
X120726461Y-125673380D01*
X120964556Y-125673380D01*
X121053842Y-125625761D01*
X121089556Y-125530523D01*
X121077651Y-125435285D01*
X121018127Y-125340047D01*
X120916937Y-125292428D01*
X120678842Y-125292428D01*
X120577651Y-125244809D01*
X120196699Y-125625761D02*
X120107413Y-125673380D01*
X119916937Y-125673380D01*
X119815747Y-125625761D01*
X119756223Y-125530523D01*
X119750270Y-125482904D01*
X119785985Y-125387666D01*
X119875270Y-125340047D01*
X120018127Y-125340047D01*
X120107413Y-125292428D01*
X120143127Y-125197190D01*
X120137175Y-125149571D01*
X120077651Y-125054333D01*
X119976461Y-125006714D01*
X119833604Y-125006714D01*
X119744318Y-125054333D01*
X119387175Y-125625761D02*
X119297889Y-125673380D01*
X119107413Y-125673380D01*
X119006223Y-125625761D01*
X118946699Y-125530523D01*
X118940747Y-125482904D01*
X118976461Y-125387666D01*
X119065747Y-125340047D01*
X119208604Y-125340047D01*
X119297889Y-125292428D01*
X119333604Y-125197190D01*
X119327651Y-125149571D01*
X119268127Y-125054333D01*
X119166937Y-125006714D01*
X119024080Y-125006714D01*
X118934794Y-125054333D01*
X118393127Y-125673380D02*
X118482413Y-125625761D01*
X118524080Y-125578142D01*
X118559794Y-125482904D01*
X118524080Y-125197190D01*
X118464556Y-125101952D01*
X118410985Y-125054333D01*
X118309794Y-125006714D01*
X118166937Y-125006714D01*
X118077651Y-125054333D01*
X118035985Y-125101952D01*
X118000270Y-125197190D01*
X118035985Y-125482904D01*
X118095508Y-125578142D01*
X118149080Y-125625761D01*
X118250270Y-125673380D01*
X118393127Y-125673380D01*
X117547889Y-125006714D02*
X117631223Y-125673380D01*
X117559794Y-125101952D02*
X117506223Y-125054333D01*
X117405032Y-125006714D01*
X117262175Y-125006714D01*
X117172889Y-125054333D01*
X117137175Y-125149571D01*
X117202651Y-125673380D01*
X124637175Y-126418619D02*
X124583604Y-126371000D01*
X124482413Y-126323380D01*
X124244318Y-126323380D01*
X124155032Y-126371000D01*
X124113366Y-126418619D01*
X124077651Y-126513857D01*
X124089556Y-126609095D01*
X124155032Y-126751952D01*
X124797889Y-127323380D01*
X124178842Y-127323380D01*
X123434794Y-126323380D02*
X123339556Y-126323380D01*
X123250270Y-126371000D01*
X123208604Y-126418619D01*
X123172889Y-126513857D01*
X123149080Y-126704333D01*
X123178842Y-126942428D01*
X123250270Y-127132904D01*
X123309794Y-127228142D01*
X123363366Y-127275761D01*
X123464556Y-127323380D01*
X123559794Y-127323380D01*
X123649080Y-127275761D01*
X123690747Y-127228142D01*
X123726461Y-127132904D01*
X123750270Y-126942428D01*
X123720508Y-126704333D01*
X123649080Y-126513857D01*
X123589556Y-126418619D01*
X123535985Y-126371000D01*
X123434794Y-126323380D01*
X122274080Y-127323380D02*
X122845508Y-127323380D01*
X122559794Y-127323380D02*
X122434794Y-126323380D01*
X122547889Y-126466238D01*
X122655032Y-126561476D01*
X122756223Y-126609095D01*
X121631223Y-126751952D02*
X121720508Y-126704333D01*
X121762175Y-126656714D01*
X121797889Y-126561476D01*
X121791937Y-126513857D01*
X121732413Y-126418619D01*
X121678842Y-126371000D01*
X121577651Y-126323380D01*
X121387175Y-126323380D01*
X121297889Y-126371000D01*
X121256223Y-126418619D01*
X121220508Y-126513857D01*
X121226461Y-126561476D01*
X121285985Y-126656714D01*
X121339556Y-126704333D01*
X121440747Y-126751952D01*
X121631223Y-126751952D01*
X121732413Y-126799571D01*
X121785985Y-126847190D01*
X121845508Y-126942428D01*
X121869318Y-127132904D01*
X121833604Y-127228142D01*
X121791937Y-127275761D01*
X121702651Y-127323380D01*
X121512175Y-127323380D01*
X121410985Y-127275761D01*
X121357413Y-127228142D01*
X121297889Y-127132904D01*
X121274080Y-126942428D01*
X121309794Y-126847190D01*
X121351461Y-126799571D01*
X121440747Y-126751952D01*
D11*
G04 #@! TO.C,J1*
X131640000Y-137160000D03*
X131640000Y-134620000D03*
X131640000Y-132080000D03*
X131640000Y-129540000D03*
X131640000Y-127000000D03*
X131640000Y-124460000D03*
X131640000Y-121920000D03*
X131640000Y-119380000D03*
X131640000Y-116840000D03*
X131640000Y-114300000D03*
X131640000Y-111760000D03*
X131640000Y-109220000D03*
X131640000Y-106680000D03*
X131640000Y-104140000D03*
X131640000Y-101600000D03*
X131640000Y-99060000D03*
X131640000Y-96520000D03*
X131640000Y-93980000D03*
X131640000Y-91440000D03*
X131640000Y-88900000D03*
D12*
X131640000Y-86360000D03*
G04 #@! TD*
D11*
G04 #@! TO.C,J2*
X114300000Y-86360000D03*
X114300000Y-88900000D03*
X114300000Y-91440000D03*
X114300000Y-93980000D03*
X114300000Y-96520000D03*
X114300000Y-99060000D03*
X114300000Y-101600000D03*
X114300000Y-104140000D03*
X114300000Y-106680000D03*
X114300000Y-109220000D03*
X114300000Y-111760000D03*
X114300000Y-114300000D03*
X114300000Y-116840000D03*
X114300000Y-119380000D03*
X114300000Y-121920000D03*
X114300000Y-124460000D03*
X114300000Y-127000000D03*
X114300000Y-129540000D03*
X114300000Y-132080000D03*
D12*
X114300000Y-134620000D03*
G04 #@! TD*
D11*
G04 #@! TO.C,J3*
X128117600Y-87680800D03*
X125577600Y-87680800D03*
X123037600Y-87680800D03*
X120497600Y-87680800D03*
D12*
X117957600Y-87680800D03*
G04 #@! TD*
M02*
