G04 #@! TF.GenerationSoftware,KiCad,Pcbnew,(5.0.0)*
G04 #@! TF.CreationDate,2018-08-22T23:15:02+02:00*
G04 #@! TF.ProjectId,SAML_BreakoutBoard,53414D4C5F427265616B6F7574426F61,rev?*
G04 #@! TF.SameCoordinates,Original*
G04 #@! TF.FileFunction,Legend,Top*
G04 #@! TF.FilePolarity,Positive*
%FSLAX46Y46*%
G04 Gerber Fmt 4.6, Leading zero omitted, Abs format (unit mm)*
G04 Created by KiCad (PCBNEW (5.0.0)) date 08/22/18 23:15:02*
%MOMM*%
%LPD*%
G01*
G04 APERTURE LIST*
%ADD10C,0.120000*%
%ADD11C,0.150000*%
%ADD12C,0.300000*%
G04 APERTURE END LIST*
D10*
X118935990Y-110217733D02*
X119316942Y-110217733D01*
X118859800Y-110446304D02*
X119126466Y-109646304D01*
X119393133Y-110446304D01*
X119545514Y-109646304D02*
X120002657Y-109646304D01*
X119774085Y-110446304D02*
X119774085Y-109646304D01*
X120231228Y-110408209D02*
X120345514Y-110446304D01*
X120535990Y-110446304D01*
X120612180Y-110408209D01*
X120650276Y-110370114D01*
X120688371Y-110293923D01*
X120688371Y-110217733D01*
X120650276Y-110141542D01*
X120612180Y-110103447D01*
X120535990Y-110065352D01*
X120383609Y-110027257D01*
X120307419Y-109989161D01*
X120269323Y-109951066D01*
X120231228Y-109874876D01*
X120231228Y-109798685D01*
X120269323Y-109722495D01*
X120307419Y-109684400D01*
X120383609Y-109646304D01*
X120574085Y-109646304D01*
X120688371Y-109684400D01*
X120993133Y-110217733D02*
X121374085Y-110217733D01*
X120916942Y-110446304D02*
X121183609Y-109646304D01*
X121450276Y-110446304D01*
X121716942Y-110446304D02*
X121716942Y-109646304D01*
X121983609Y-110217733D01*
X122250276Y-109646304D01*
X122250276Y-110446304D01*
X123012180Y-110446304D02*
X122631228Y-110446304D01*
X122631228Y-109646304D01*
X123240752Y-109722495D02*
X123278847Y-109684400D01*
X123355038Y-109646304D01*
X123545514Y-109646304D01*
X123621704Y-109684400D01*
X123659800Y-109722495D01*
X123697895Y-109798685D01*
X123697895Y-109874876D01*
X123659800Y-109989161D01*
X123202657Y-110446304D01*
X123697895Y-110446304D01*
X124459800Y-110446304D02*
X124002657Y-110446304D01*
X124231228Y-110446304D02*
X124231228Y-109646304D01*
X124155038Y-109760590D01*
X124078847Y-109836780D01*
X124002657Y-109874876D01*
X125221704Y-109684400D02*
X125145514Y-109646304D01*
X125031228Y-109646304D01*
X124916942Y-109684400D01*
X124840752Y-109760590D01*
X124802657Y-109836780D01*
X124764561Y-109989161D01*
X124764561Y-110103447D01*
X124802657Y-110255828D01*
X124840752Y-110332019D01*
X124916942Y-110408209D01*
X125031228Y-110446304D01*
X125107419Y-110446304D01*
X125221704Y-110408209D01*
X125259800Y-110370114D01*
X125259800Y-110103447D01*
X125107419Y-110103447D01*
X125526466Y-109646304D02*
X126059800Y-110446304D01*
X126059800Y-109646304D02*
X125526466Y-110446304D01*
X126288371Y-109646304D02*
X126821704Y-110446304D01*
X126821704Y-109646304D02*
X126288371Y-110446304D01*
X120688371Y-111766304D02*
X120307419Y-111766304D01*
X120307419Y-110966304D01*
X121488371Y-111842495D02*
X121412180Y-111804400D01*
X121335990Y-111728209D01*
X121221704Y-111613923D01*
X121145514Y-111575828D01*
X121069323Y-111575828D01*
X121107419Y-111766304D02*
X121031228Y-111728209D01*
X120955038Y-111652019D01*
X120916942Y-111499638D01*
X120916942Y-111232971D01*
X120955038Y-111080590D01*
X121031228Y-111004400D01*
X121107419Y-110966304D01*
X121259800Y-110966304D01*
X121335990Y-111004400D01*
X121412180Y-111080590D01*
X121450276Y-111232971D01*
X121450276Y-111499638D01*
X121412180Y-111652019D01*
X121335990Y-111728209D01*
X121259800Y-111766304D01*
X121107419Y-111766304D01*
X122059800Y-111347257D02*
X121793133Y-111347257D01*
X121793133Y-111766304D02*
X121793133Y-110966304D01*
X122174085Y-110966304D01*
X122478847Y-111766304D02*
X122478847Y-110966304D01*
X122783609Y-110966304D01*
X122859800Y-111004400D01*
X122897895Y-111042495D01*
X122935990Y-111118685D01*
X122935990Y-111232971D01*
X122897895Y-111309161D01*
X122859800Y-111347257D01*
X122783609Y-111385352D01*
X122478847Y-111385352D01*
X123278847Y-111461542D02*
X123888371Y-111461542D01*
X124612180Y-111232971D02*
X124612180Y-111766304D01*
X124421704Y-110928209D02*
X124231228Y-111499638D01*
X124726466Y-111499638D01*
X125145514Y-111309161D02*
X125069323Y-111271066D01*
X125031228Y-111232971D01*
X124993133Y-111156780D01*
X124993133Y-111118685D01*
X125031228Y-111042495D01*
X125069323Y-111004400D01*
X125145514Y-110966304D01*
X125297895Y-110966304D01*
X125374085Y-111004400D01*
X125412180Y-111042495D01*
X125450276Y-111118685D01*
X125450276Y-111156780D01*
X125412180Y-111232971D01*
X125374085Y-111271066D01*
X125297895Y-111309161D01*
X125145514Y-111309161D01*
X125069323Y-111347257D01*
X125031228Y-111385352D01*
X124993133Y-111461542D01*
X124993133Y-111613923D01*
X125031228Y-111690114D01*
X125069323Y-111728209D01*
X125145514Y-111766304D01*
X125297895Y-111766304D01*
X125374085Y-111728209D01*
X125412180Y-111690114D01*
X125450276Y-111613923D01*
X125450276Y-111461542D01*
X125412180Y-111385352D01*
X125374085Y-111347257D01*
X125297895Y-111309161D01*
X120612180Y-112286304D02*
X121145514Y-112286304D01*
X120802657Y-113086304D01*
X121374085Y-113086304D02*
X121793133Y-112552971D01*
X121374085Y-112552971D02*
X121793133Y-113086304D01*
X122021704Y-112286304D02*
X122555038Y-112286304D01*
X122212180Y-113086304D01*
X122783609Y-113086304D02*
X123202657Y-112552971D01*
X122783609Y-112552971D02*
X123202657Y-113086304D01*
X123659800Y-112286304D02*
X123735990Y-112286304D01*
X123812180Y-112324400D01*
X123850276Y-112362495D01*
X123888371Y-112438685D01*
X123926466Y-112591066D01*
X123926466Y-112781542D01*
X123888371Y-112933923D01*
X123850276Y-113010114D01*
X123812180Y-113048209D01*
X123735990Y-113086304D01*
X123659800Y-113086304D01*
X123583609Y-113048209D01*
X123545514Y-113010114D01*
X123507419Y-112933923D01*
X123469323Y-112781542D01*
X123469323Y-112591066D01*
X123507419Y-112438685D01*
X123545514Y-112362495D01*
X123583609Y-112324400D01*
X123659800Y-112286304D01*
X124269323Y-113010114D02*
X124307419Y-113048209D01*
X124269323Y-113086304D01*
X124231228Y-113048209D01*
X124269323Y-113010114D01*
X124269323Y-113086304D01*
X125031228Y-112286304D02*
X124650276Y-112286304D01*
X124612180Y-112667257D01*
X124650276Y-112629161D01*
X124726466Y-112591066D01*
X124916942Y-112591066D01*
X124993133Y-112629161D01*
X125031228Y-112667257D01*
X125069323Y-112743447D01*
X125069323Y-112933923D01*
X125031228Y-113010114D01*
X124993133Y-113048209D01*
X124916942Y-113086304D01*
X124726466Y-113086304D01*
X124650276Y-113048209D01*
X124612180Y-113010114D01*
D11*
X127825666Y-85177380D02*
X128159000Y-86177380D01*
X128492333Y-85177380D01*
X129397095Y-86082142D02*
X129349476Y-86129761D01*
X129206619Y-86177380D01*
X129111380Y-86177380D01*
X128968523Y-86129761D01*
X128873285Y-86034523D01*
X128825666Y-85939285D01*
X128778047Y-85748809D01*
X128778047Y-85605952D01*
X128825666Y-85415476D01*
X128873285Y-85320238D01*
X128968523Y-85225000D01*
X129111380Y-85177380D01*
X129206619Y-85177380D01*
X129349476Y-85225000D01*
X129397095Y-85272619D01*
X130397095Y-86082142D02*
X130349476Y-86129761D01*
X130206619Y-86177380D01*
X130111380Y-86177380D01*
X129968523Y-86129761D01*
X129873285Y-86034523D01*
X129825666Y-85939285D01*
X129778047Y-85748809D01*
X129778047Y-85605952D01*
X129825666Y-85415476D01*
X129873285Y-85320238D01*
X129968523Y-85225000D01*
X130111380Y-85177380D01*
X130206619Y-85177380D01*
X130349476Y-85225000D01*
X130397095Y-85272619D01*
X115252666Y-85177380D02*
X115586000Y-86177380D01*
X115919333Y-85177380D01*
X116824095Y-86082142D02*
X116776476Y-86129761D01*
X116633619Y-86177380D01*
X116538380Y-86177380D01*
X116395523Y-86129761D01*
X116300285Y-86034523D01*
X116252666Y-85939285D01*
X116205047Y-85748809D01*
X116205047Y-85605952D01*
X116252666Y-85415476D01*
X116300285Y-85320238D01*
X116395523Y-85225000D01*
X116538380Y-85177380D01*
X116633619Y-85177380D01*
X116776476Y-85225000D01*
X116824095Y-85272619D01*
X117824095Y-86082142D02*
X117776476Y-86129761D01*
X117633619Y-86177380D01*
X117538380Y-86177380D01*
X117395523Y-86129761D01*
X117300285Y-86034523D01*
X117252666Y-85939285D01*
X117205047Y-85748809D01*
X117205047Y-85605952D01*
X117252666Y-85415476D01*
X117300285Y-85320238D01*
X117395523Y-85225000D01*
X117538380Y-85177380D01*
X117633619Y-85177380D01*
X117776476Y-85225000D01*
X117824095Y-85272619D01*
X119967761Y-85177380D02*
X119967761Y-85891666D01*
X119920142Y-86034523D01*
X119824904Y-86129761D01*
X119682047Y-86177380D01*
X119586809Y-86177380D01*
X120301095Y-85177380D02*
X120872523Y-85177380D01*
X120586809Y-86177380D02*
X120586809Y-85177380D01*
X121158238Y-85891666D02*
X121634428Y-85891666D01*
X121063000Y-86177380D02*
X121396333Y-85177380D01*
X121729666Y-86177380D01*
X122586809Y-85225000D02*
X122491571Y-85177380D01*
X122348714Y-85177380D01*
X122205857Y-85225000D01*
X122110619Y-85320238D01*
X122063000Y-85415476D01*
X122015380Y-85605952D01*
X122015380Y-85748809D01*
X122063000Y-85939285D01*
X122110619Y-86034523D01*
X122205857Y-86129761D01*
X122348714Y-86177380D01*
X122443952Y-86177380D01*
X122586809Y-86129761D01*
X122634428Y-86082142D01*
X122634428Y-85748809D01*
X122443952Y-85748809D01*
X123777285Y-86129761D02*
X123920142Y-86177380D01*
X124158238Y-86177380D01*
X124253476Y-86129761D01*
X124301095Y-86082142D01*
X124348714Y-85986904D01*
X124348714Y-85891666D01*
X124301095Y-85796428D01*
X124253476Y-85748809D01*
X124158238Y-85701190D01*
X123967761Y-85653571D01*
X123872523Y-85605952D01*
X123824904Y-85558333D01*
X123777285Y-85463095D01*
X123777285Y-85367857D01*
X123824904Y-85272619D01*
X123872523Y-85225000D01*
X123967761Y-85177380D01*
X124205857Y-85177380D01*
X124348714Y-85225000D01*
X124682047Y-85177380D02*
X124920142Y-86177380D01*
X125110619Y-85463095D01*
X125301095Y-86177380D01*
X125539190Y-85177380D01*
X125920142Y-86177380D02*
X125920142Y-85177380D01*
X126158238Y-85177380D01*
X126301095Y-85225000D01*
X126396333Y-85320238D01*
X126443952Y-85415476D01*
X126491571Y-85605952D01*
X126491571Y-85748809D01*
X126443952Y-85939285D01*
X126396333Y-86034523D01*
X126301095Y-86129761D01*
X126158238Y-86177380D01*
X125920142Y-86177380D01*
D12*
X116586142Y-133870000D02*
X116443285Y-133798571D01*
X116229000Y-133798571D01*
X116014714Y-133870000D01*
X115871857Y-134012857D01*
X115800428Y-134155714D01*
X115729000Y-134441428D01*
X115729000Y-134655714D01*
X115800428Y-134941428D01*
X115871857Y-135084285D01*
X116014714Y-135227142D01*
X116229000Y-135298571D01*
X116371857Y-135298571D01*
X116586142Y-135227142D01*
X116657571Y-135155714D01*
X116657571Y-134655714D01*
X116371857Y-134655714D01*
X117300428Y-135298571D02*
X117300428Y-133798571D01*
X118157571Y-135298571D01*
X118157571Y-133798571D01*
X118871857Y-135298571D02*
X118871857Y-133798571D01*
X119229000Y-133798571D01*
X119443285Y-133870000D01*
X119586142Y-134012857D01*
X119657571Y-134155714D01*
X119729000Y-134441428D01*
X119729000Y-134655714D01*
X119657571Y-134941428D01*
X119586142Y-135084285D01*
X119443285Y-135227142D01*
X119229000Y-135298571D01*
X118871857Y-135298571D01*
X127127142Y-136410000D02*
X126984285Y-136338571D01*
X126770000Y-136338571D01*
X126555714Y-136410000D01*
X126412857Y-136552857D01*
X126341428Y-136695714D01*
X126270000Y-136981428D01*
X126270000Y-137195714D01*
X126341428Y-137481428D01*
X126412857Y-137624285D01*
X126555714Y-137767142D01*
X126770000Y-137838571D01*
X126912857Y-137838571D01*
X127127142Y-137767142D01*
X127198571Y-137695714D01*
X127198571Y-137195714D01*
X126912857Y-137195714D01*
X127841428Y-137838571D02*
X127841428Y-136338571D01*
X128698571Y-137838571D01*
X128698571Y-136338571D01*
X129412857Y-137838571D02*
X129412857Y-136338571D01*
X129770000Y-136338571D01*
X129984285Y-136410000D01*
X130127142Y-136552857D01*
X130198571Y-136695714D01*
X130270000Y-136981428D01*
X130270000Y-137195714D01*
X130198571Y-137481428D01*
X130127142Y-137624285D01*
X129984285Y-137767142D01*
X129770000Y-137838571D01*
X129412857Y-137838571D01*
D11*
X121483619Y-134437380D02*
X121150285Y-133961190D01*
X120912190Y-134437380D02*
X120912190Y-133437380D01*
X121293142Y-133437380D01*
X121388380Y-133485000D01*
X121436000Y-133532619D01*
X121483619Y-133627857D01*
X121483619Y-133770714D01*
X121436000Y-133865952D01*
X121388380Y-133913571D01*
X121293142Y-133961190D01*
X120912190Y-133961190D01*
X121912190Y-133913571D02*
X122245523Y-133913571D01*
X122388380Y-134437380D02*
X121912190Y-134437380D01*
X121912190Y-133437380D01*
X122388380Y-133437380D01*
X122769333Y-134389761D02*
X122912190Y-134437380D01*
X123150285Y-134437380D01*
X123245523Y-134389761D01*
X123293142Y-134342142D01*
X123340761Y-134246904D01*
X123340761Y-134151666D01*
X123293142Y-134056428D01*
X123245523Y-134008809D01*
X123150285Y-133961190D01*
X122959809Y-133913571D01*
X122864571Y-133865952D01*
X122816952Y-133818333D01*
X122769333Y-133723095D01*
X122769333Y-133627857D01*
X122816952Y-133532619D01*
X122864571Y-133485000D01*
X122959809Y-133437380D01*
X123197904Y-133437380D01*
X123340761Y-133485000D01*
X123769333Y-133913571D02*
X124102666Y-133913571D01*
X124245523Y-134437380D02*
X123769333Y-134437380D01*
X123769333Y-133437380D01*
X124245523Y-133437380D01*
X124531238Y-133437380D02*
X125102666Y-133437380D01*
X124816952Y-134437380D02*
X124816952Y-133437380D01*
X129262238Y-88828571D02*
X129405095Y-88876190D01*
X129452714Y-88923809D01*
X129500333Y-89019047D01*
X129500333Y-89161904D01*
X129452714Y-89257142D01*
X129405095Y-89304761D01*
X129309857Y-89352380D01*
X128928904Y-89352380D01*
X128928904Y-88352380D01*
X129262238Y-88352380D01*
X129357476Y-88400000D01*
X129405095Y-88447619D01*
X129452714Y-88542857D01*
X129452714Y-88638095D01*
X129405095Y-88733333D01*
X129357476Y-88780952D01*
X129262238Y-88828571D01*
X128928904Y-88828571D01*
X129833666Y-88352380D02*
X130452714Y-88352380D01*
X130119380Y-88733333D01*
X130262238Y-88733333D01*
X130357476Y-88780952D01*
X130405095Y-88828571D01*
X130452714Y-88923809D01*
X130452714Y-89161904D01*
X130405095Y-89257142D01*
X130357476Y-89304761D01*
X130262238Y-89352380D01*
X129976523Y-89352380D01*
X129881285Y-89304761D01*
X129833666Y-89257142D01*
X129262238Y-91368571D02*
X129405095Y-91416190D01*
X129452714Y-91463809D01*
X129500333Y-91559047D01*
X129500333Y-91701904D01*
X129452714Y-91797142D01*
X129405095Y-91844761D01*
X129309857Y-91892380D01*
X128928904Y-91892380D01*
X128928904Y-90892380D01*
X129262238Y-90892380D01*
X129357476Y-90940000D01*
X129405095Y-90987619D01*
X129452714Y-91082857D01*
X129452714Y-91178095D01*
X129405095Y-91273333D01*
X129357476Y-91320952D01*
X129262238Y-91368571D01*
X128928904Y-91368571D01*
X129881285Y-90987619D02*
X129928904Y-90940000D01*
X130024142Y-90892380D01*
X130262238Y-90892380D01*
X130357476Y-90940000D01*
X130405095Y-90987619D01*
X130452714Y-91082857D01*
X130452714Y-91178095D01*
X130405095Y-91320952D01*
X129833666Y-91892380D01*
X130452714Y-91892380D01*
X128095523Y-94146666D02*
X128571714Y-94146666D01*
X128000285Y-94432380D02*
X128333619Y-93432380D01*
X128666952Y-94432380D01*
X128905047Y-93432380D02*
X129524095Y-93432380D01*
X129190761Y-93813333D01*
X129333619Y-93813333D01*
X129428857Y-93860952D01*
X129476476Y-93908571D01*
X129524095Y-94003809D01*
X129524095Y-94241904D01*
X129476476Y-94337142D01*
X129428857Y-94384761D01*
X129333619Y-94432380D01*
X129047904Y-94432380D01*
X128952666Y-94384761D01*
X128905047Y-94337142D01*
X130476476Y-94432380D02*
X129905047Y-94432380D01*
X130190761Y-94432380D02*
X130190761Y-93432380D01*
X130095523Y-93575238D01*
X130000285Y-93670476D01*
X129905047Y-93718095D01*
X128095523Y-96686666D02*
X128571714Y-96686666D01*
X128000285Y-96972380D02*
X128333619Y-95972380D01*
X128666952Y-96972380D01*
X128905047Y-95972380D02*
X129524095Y-95972380D01*
X129190761Y-96353333D01*
X129333619Y-96353333D01*
X129428857Y-96400952D01*
X129476476Y-96448571D01*
X129524095Y-96543809D01*
X129524095Y-96781904D01*
X129476476Y-96877142D01*
X129428857Y-96924761D01*
X129333619Y-96972380D01*
X129047904Y-96972380D01*
X128952666Y-96924761D01*
X128905047Y-96877142D01*
X130143142Y-95972380D02*
X130238380Y-95972380D01*
X130333619Y-96020000D01*
X130381238Y-96067619D01*
X130428857Y-96162857D01*
X130476476Y-96353333D01*
X130476476Y-96591428D01*
X130428857Y-96781904D01*
X130381238Y-96877142D01*
X130333619Y-96924761D01*
X130238380Y-96972380D01*
X130143142Y-96972380D01*
X130047904Y-96924761D01*
X130000285Y-96877142D01*
X129952666Y-96781904D01*
X129905047Y-96591428D01*
X129905047Y-96353333D01*
X129952666Y-96162857D01*
X130000285Y-96067619D01*
X130047904Y-96020000D01*
X130143142Y-95972380D01*
X128095523Y-99226666D02*
X128571714Y-99226666D01*
X128000285Y-99512380D02*
X128333619Y-98512380D01*
X128666952Y-99512380D01*
X128952666Y-98607619D02*
X129000285Y-98560000D01*
X129095523Y-98512380D01*
X129333619Y-98512380D01*
X129428857Y-98560000D01*
X129476476Y-98607619D01*
X129524095Y-98702857D01*
X129524095Y-98798095D01*
X129476476Y-98940952D01*
X128905047Y-99512380D01*
X129524095Y-99512380D01*
X129857428Y-98512380D02*
X130524095Y-98512380D01*
X130095523Y-99512380D01*
X128278047Y-101528571D02*
X128420904Y-101576190D01*
X128468523Y-101623809D01*
X128516142Y-101719047D01*
X128516142Y-101861904D01*
X128468523Y-101957142D01*
X128420904Y-102004761D01*
X128325666Y-102052380D01*
X127944714Y-102052380D01*
X127944714Y-101052380D01*
X128278047Y-101052380D01*
X128373285Y-101100000D01*
X128420904Y-101147619D01*
X128468523Y-101242857D01*
X128468523Y-101338095D01*
X128420904Y-101433333D01*
X128373285Y-101480952D01*
X128278047Y-101528571D01*
X127944714Y-101528571D01*
X128897095Y-101147619D02*
X128944714Y-101100000D01*
X129039952Y-101052380D01*
X129278047Y-101052380D01*
X129373285Y-101100000D01*
X129420904Y-101147619D01*
X129468523Y-101242857D01*
X129468523Y-101338095D01*
X129420904Y-101480952D01*
X128849476Y-102052380D01*
X129468523Y-102052380D01*
X129801857Y-101052380D02*
X130420904Y-101052380D01*
X130087571Y-101433333D01*
X130230428Y-101433333D01*
X130325666Y-101480952D01*
X130373285Y-101528571D01*
X130420904Y-101623809D01*
X130420904Y-101861904D01*
X130373285Y-101957142D01*
X130325666Y-102004761D01*
X130230428Y-102052380D01*
X129944714Y-102052380D01*
X129849476Y-102004761D01*
X129801857Y-101957142D01*
X128278047Y-104068571D02*
X128420904Y-104116190D01*
X128468523Y-104163809D01*
X128516142Y-104259047D01*
X128516142Y-104401904D01*
X128468523Y-104497142D01*
X128420904Y-104544761D01*
X128325666Y-104592380D01*
X127944714Y-104592380D01*
X127944714Y-103592380D01*
X128278047Y-103592380D01*
X128373285Y-103640000D01*
X128420904Y-103687619D01*
X128468523Y-103782857D01*
X128468523Y-103878095D01*
X128420904Y-103973333D01*
X128373285Y-104020952D01*
X128278047Y-104068571D01*
X127944714Y-104068571D01*
X128897095Y-103687619D02*
X128944714Y-103640000D01*
X129039952Y-103592380D01*
X129278047Y-103592380D01*
X129373285Y-103640000D01*
X129420904Y-103687619D01*
X129468523Y-103782857D01*
X129468523Y-103878095D01*
X129420904Y-104020952D01*
X128849476Y-104592380D01*
X129468523Y-104592380D01*
X129849476Y-103687619D02*
X129897095Y-103640000D01*
X129992333Y-103592380D01*
X130230428Y-103592380D01*
X130325666Y-103640000D01*
X130373285Y-103687619D01*
X130420904Y-103782857D01*
X130420904Y-103878095D01*
X130373285Y-104020952D01*
X129801857Y-104592380D01*
X130420904Y-104592380D01*
X127968523Y-106846666D02*
X128444714Y-106846666D01*
X127873285Y-107132380D02*
X128206619Y-106132380D01*
X128539952Y-107132380D01*
X128825666Y-106227619D02*
X128873285Y-106180000D01*
X128968523Y-106132380D01*
X129206619Y-106132380D01*
X129301857Y-106180000D01*
X129349476Y-106227619D01*
X129397095Y-106322857D01*
X129397095Y-106418095D01*
X129349476Y-106560952D01*
X128778047Y-107132380D01*
X129397095Y-107132380D01*
X130301857Y-106132380D02*
X129825666Y-106132380D01*
X129778047Y-106608571D01*
X129825666Y-106560952D01*
X129920904Y-106513333D01*
X130159000Y-106513333D01*
X130254238Y-106560952D01*
X130301857Y-106608571D01*
X130349476Y-106703809D01*
X130349476Y-106941904D01*
X130301857Y-107037142D01*
X130254238Y-107084761D01*
X130159000Y-107132380D01*
X129920904Y-107132380D01*
X129825666Y-107084761D01*
X129778047Y-107037142D01*
X128222523Y-110021666D02*
X128698714Y-110021666D01*
X128127285Y-110307380D02*
X128460619Y-109307380D01*
X128793952Y-110307380D01*
X129079666Y-109402619D02*
X129127285Y-109355000D01*
X129222523Y-109307380D01*
X129460619Y-109307380D01*
X129555857Y-109355000D01*
X129603476Y-109402619D01*
X129651095Y-109497857D01*
X129651095Y-109593095D01*
X129603476Y-109735952D01*
X129032047Y-110307380D01*
X129651095Y-110307380D01*
X130508238Y-109640714D02*
X130508238Y-110307380D01*
X130270142Y-109259761D02*
X130032047Y-109974047D01*
X130651095Y-109974047D01*
X128222523Y-111164666D02*
X128698714Y-111164666D01*
X128127285Y-111450380D02*
X128460619Y-110450380D01*
X128793952Y-111450380D01*
X129079666Y-110545619D02*
X129127285Y-110498000D01*
X129222523Y-110450380D01*
X129460619Y-110450380D01*
X129555857Y-110498000D01*
X129603476Y-110545619D01*
X129651095Y-110640857D01*
X129651095Y-110736095D01*
X129603476Y-110878952D01*
X129032047Y-111450380D01*
X129651095Y-111450380D01*
X129984428Y-110450380D02*
X130603476Y-110450380D01*
X130270142Y-110831333D01*
X130413000Y-110831333D01*
X130508238Y-110878952D01*
X130555857Y-110926571D01*
X130603476Y-111021809D01*
X130603476Y-111259904D01*
X130555857Y-111355142D01*
X130508238Y-111402761D01*
X130413000Y-111450380D01*
X130127285Y-111450380D01*
X130032047Y-111402761D01*
X129984428Y-111355142D01*
X127968523Y-114466666D02*
X128444714Y-114466666D01*
X127873285Y-114752380D02*
X128206619Y-113752380D01*
X128539952Y-114752380D01*
X128825666Y-113847619D02*
X128873285Y-113800000D01*
X128968523Y-113752380D01*
X129206619Y-113752380D01*
X129301857Y-113800000D01*
X129349476Y-113847619D01*
X129397095Y-113942857D01*
X129397095Y-114038095D01*
X129349476Y-114180952D01*
X128778047Y-114752380D01*
X129397095Y-114752380D01*
X129778047Y-113847619D02*
X129825666Y-113800000D01*
X129920904Y-113752380D01*
X130159000Y-113752380D01*
X130254238Y-113800000D01*
X130301857Y-113847619D01*
X130349476Y-113942857D01*
X130349476Y-114038095D01*
X130301857Y-114180952D01*
X129730428Y-114752380D01*
X130349476Y-114752380D01*
X127968523Y-117006666D02*
X128444714Y-117006666D01*
X127873285Y-117292380D02*
X128206619Y-116292380D01*
X128539952Y-117292380D01*
X128825666Y-116387619D02*
X128873285Y-116340000D01*
X128968523Y-116292380D01*
X129206619Y-116292380D01*
X129301857Y-116340000D01*
X129349476Y-116387619D01*
X129397095Y-116482857D01*
X129397095Y-116578095D01*
X129349476Y-116720952D01*
X128778047Y-117292380D01*
X129397095Y-117292380D01*
X130349476Y-117292380D02*
X129778047Y-117292380D01*
X130063761Y-117292380D02*
X130063761Y-116292380D01*
X129968523Y-116435238D01*
X129873285Y-116530476D01*
X129778047Y-116578095D01*
X127968523Y-119546666D02*
X128444714Y-119546666D01*
X127873285Y-119832380D02*
X128206619Y-118832380D01*
X128539952Y-119832380D01*
X128825666Y-118927619D02*
X128873285Y-118880000D01*
X128968523Y-118832380D01*
X129206619Y-118832380D01*
X129301857Y-118880000D01*
X129349476Y-118927619D01*
X129397095Y-119022857D01*
X129397095Y-119118095D01*
X129349476Y-119260952D01*
X128778047Y-119832380D01*
X129397095Y-119832380D01*
X130016142Y-118832380D02*
X130111380Y-118832380D01*
X130206619Y-118880000D01*
X130254238Y-118927619D01*
X130301857Y-119022857D01*
X130349476Y-119213333D01*
X130349476Y-119451428D01*
X130301857Y-119641904D01*
X130254238Y-119737142D01*
X130206619Y-119784761D01*
X130111380Y-119832380D01*
X130016142Y-119832380D01*
X129920904Y-119784761D01*
X129873285Y-119737142D01*
X129825666Y-119641904D01*
X129778047Y-119451428D01*
X129778047Y-119213333D01*
X129825666Y-119022857D01*
X129873285Y-118927619D01*
X129920904Y-118880000D01*
X130016142Y-118832380D01*
X127968523Y-122086666D02*
X128444714Y-122086666D01*
X127873285Y-122372380D02*
X128206619Y-121372380D01*
X128539952Y-122372380D01*
X129397095Y-122372380D02*
X128825666Y-122372380D01*
X129111380Y-122372380D02*
X129111380Y-121372380D01*
X129016142Y-121515238D01*
X128920904Y-121610476D01*
X128825666Y-121658095D01*
X129873285Y-122372380D02*
X130063761Y-122372380D01*
X130159000Y-122324761D01*
X130206619Y-122277142D01*
X130301857Y-122134285D01*
X130349476Y-121943809D01*
X130349476Y-121562857D01*
X130301857Y-121467619D01*
X130254238Y-121420000D01*
X130159000Y-121372380D01*
X129968523Y-121372380D01*
X129873285Y-121420000D01*
X129825666Y-121467619D01*
X129778047Y-121562857D01*
X129778047Y-121800952D01*
X129825666Y-121896190D01*
X129873285Y-121943809D01*
X129968523Y-121991428D01*
X130159000Y-121991428D01*
X130254238Y-121943809D01*
X130301857Y-121896190D01*
X130349476Y-121800952D01*
X127968523Y-124626666D02*
X128444714Y-124626666D01*
X127873285Y-124912380D02*
X128206619Y-123912380D01*
X128539952Y-124912380D01*
X129397095Y-124912380D02*
X128825666Y-124912380D01*
X129111380Y-124912380D02*
X129111380Y-123912380D01*
X129016142Y-124055238D01*
X128920904Y-124150476D01*
X128825666Y-124198095D01*
X129968523Y-124340952D02*
X129873285Y-124293333D01*
X129825666Y-124245714D01*
X129778047Y-124150476D01*
X129778047Y-124102857D01*
X129825666Y-124007619D01*
X129873285Y-123960000D01*
X129968523Y-123912380D01*
X130159000Y-123912380D01*
X130254238Y-123960000D01*
X130301857Y-124007619D01*
X130349476Y-124102857D01*
X130349476Y-124150476D01*
X130301857Y-124245714D01*
X130254238Y-124293333D01*
X130159000Y-124340952D01*
X129968523Y-124340952D01*
X129873285Y-124388571D01*
X129825666Y-124436190D01*
X129778047Y-124531428D01*
X129778047Y-124721904D01*
X129825666Y-124817142D01*
X129873285Y-124864761D01*
X129968523Y-124912380D01*
X130159000Y-124912380D01*
X130254238Y-124864761D01*
X130301857Y-124817142D01*
X130349476Y-124721904D01*
X130349476Y-124531428D01*
X130301857Y-124436190D01*
X130254238Y-124388571D01*
X130159000Y-124340952D01*
X127968523Y-127166666D02*
X128444714Y-127166666D01*
X127873285Y-127452380D02*
X128206619Y-126452380D01*
X128539952Y-127452380D01*
X129397095Y-127452380D02*
X128825666Y-127452380D01*
X129111380Y-127452380D02*
X129111380Y-126452380D01*
X129016142Y-126595238D01*
X128920904Y-126690476D01*
X128825666Y-126738095D01*
X129730428Y-126452380D02*
X130397095Y-126452380D01*
X129968523Y-127452380D01*
X127968523Y-129706666D02*
X128444714Y-129706666D01*
X127873285Y-129992380D02*
X128206619Y-128992380D01*
X128539952Y-129992380D01*
X129397095Y-129992380D02*
X128825666Y-129992380D01*
X129111380Y-129992380D02*
X129111380Y-128992380D01*
X129016142Y-129135238D01*
X128920904Y-129230476D01*
X128825666Y-129278095D01*
X130254238Y-128992380D02*
X130063761Y-128992380D01*
X129968523Y-129040000D01*
X129920904Y-129087619D01*
X129825666Y-129230476D01*
X129778047Y-129420952D01*
X129778047Y-129801904D01*
X129825666Y-129897142D01*
X129873285Y-129944761D01*
X129968523Y-129992380D01*
X130159000Y-129992380D01*
X130254238Y-129944761D01*
X130301857Y-129897142D01*
X130349476Y-129801904D01*
X130349476Y-129563809D01*
X130301857Y-129468571D01*
X130254238Y-129420952D01*
X130159000Y-129373333D01*
X129968523Y-129373333D01*
X129873285Y-129420952D01*
X129825666Y-129468571D01*
X129778047Y-129563809D01*
X127968523Y-132246666D02*
X128444714Y-132246666D01*
X127873285Y-132532380D02*
X128206619Y-131532380D01*
X128539952Y-132532380D01*
X129397095Y-132532380D02*
X128825666Y-132532380D01*
X129111380Y-132532380D02*
X129111380Y-131532380D01*
X129016142Y-131675238D01*
X128920904Y-131770476D01*
X128825666Y-131818095D01*
X130301857Y-131532380D02*
X129825666Y-131532380D01*
X129778047Y-132008571D01*
X129825666Y-131960952D01*
X129920904Y-131913333D01*
X130159000Y-131913333D01*
X130254238Y-131960952D01*
X130301857Y-132008571D01*
X130349476Y-132103809D01*
X130349476Y-132341904D01*
X130301857Y-132437142D01*
X130254238Y-132484761D01*
X130159000Y-132532380D01*
X129920904Y-132532380D01*
X129825666Y-132484761D01*
X129778047Y-132437142D01*
X127968523Y-134786666D02*
X128444714Y-134786666D01*
X127873285Y-135072380D02*
X128206619Y-134072380D01*
X128539952Y-135072380D01*
X129397095Y-135072380D02*
X128825666Y-135072380D01*
X129111380Y-135072380D02*
X129111380Y-134072380D01*
X129016142Y-134215238D01*
X128920904Y-134310476D01*
X128825666Y-134358095D01*
X130254238Y-134405714D02*
X130254238Y-135072380D01*
X130016142Y-134024761D02*
X129778047Y-134739047D01*
X130397095Y-134739047D01*
X115522523Y-132246666D02*
X115998714Y-132246666D01*
X115427285Y-132532380D02*
X115760619Y-131532380D01*
X116093952Y-132532380D01*
X116951095Y-132532380D02*
X116379666Y-132532380D01*
X116665380Y-132532380D02*
X116665380Y-131532380D01*
X116570142Y-131675238D01*
X116474904Y-131770476D01*
X116379666Y-131818095D01*
X117284428Y-131532380D02*
X117903476Y-131532380D01*
X117570142Y-131913333D01*
X117713000Y-131913333D01*
X117808238Y-131960952D01*
X117855857Y-132008571D01*
X117903476Y-132103809D01*
X117903476Y-132341904D01*
X117855857Y-132437142D01*
X117808238Y-132484761D01*
X117713000Y-132532380D01*
X117427285Y-132532380D01*
X117332047Y-132484761D01*
X117284428Y-132437142D01*
X115522523Y-129706666D02*
X115998714Y-129706666D01*
X115427285Y-129992380D02*
X115760619Y-128992380D01*
X116093952Y-129992380D01*
X116951095Y-129992380D02*
X116379666Y-129992380D01*
X116665380Y-129992380D02*
X116665380Y-128992380D01*
X116570142Y-129135238D01*
X116474904Y-129230476D01*
X116379666Y-129278095D01*
X117332047Y-129087619D02*
X117379666Y-129040000D01*
X117474904Y-128992380D01*
X117713000Y-128992380D01*
X117808238Y-129040000D01*
X117855857Y-129087619D01*
X117903476Y-129182857D01*
X117903476Y-129278095D01*
X117855857Y-129420952D01*
X117284428Y-129992380D01*
X117903476Y-129992380D01*
X115832047Y-126928571D02*
X115974904Y-126976190D01*
X116022523Y-127023809D01*
X116070142Y-127119047D01*
X116070142Y-127261904D01*
X116022523Y-127357142D01*
X115974904Y-127404761D01*
X115879666Y-127452380D01*
X115498714Y-127452380D01*
X115498714Y-126452380D01*
X115832047Y-126452380D01*
X115927285Y-126500000D01*
X115974904Y-126547619D01*
X116022523Y-126642857D01*
X116022523Y-126738095D01*
X115974904Y-126833333D01*
X115927285Y-126880952D01*
X115832047Y-126928571D01*
X115498714Y-126928571D01*
X117022523Y-127452380D02*
X116451095Y-127452380D01*
X116736809Y-127452380D02*
X116736809Y-126452380D01*
X116641571Y-126595238D01*
X116546333Y-126690476D01*
X116451095Y-126738095D01*
X117974904Y-127452380D02*
X117403476Y-127452380D01*
X117689190Y-127452380D02*
X117689190Y-126452380D01*
X117593952Y-126595238D01*
X117498714Y-126690476D01*
X117403476Y-126738095D01*
X115832047Y-124388571D02*
X115974904Y-124436190D01*
X116022523Y-124483809D01*
X116070142Y-124579047D01*
X116070142Y-124721904D01*
X116022523Y-124817142D01*
X115974904Y-124864761D01*
X115879666Y-124912380D01*
X115498714Y-124912380D01*
X115498714Y-123912380D01*
X115832047Y-123912380D01*
X115927285Y-123960000D01*
X115974904Y-124007619D01*
X116022523Y-124102857D01*
X116022523Y-124198095D01*
X115974904Y-124293333D01*
X115927285Y-124340952D01*
X115832047Y-124388571D01*
X115498714Y-124388571D01*
X117022523Y-124912380D02*
X116451095Y-124912380D01*
X116736809Y-124912380D02*
X116736809Y-123912380D01*
X116641571Y-124055238D01*
X116546333Y-124150476D01*
X116451095Y-124198095D01*
X117641571Y-123912380D02*
X117736809Y-123912380D01*
X117832047Y-123960000D01*
X117879666Y-124007619D01*
X117927285Y-124102857D01*
X117974904Y-124293333D01*
X117974904Y-124531428D01*
X117927285Y-124721904D01*
X117879666Y-124817142D01*
X117832047Y-124864761D01*
X117736809Y-124912380D01*
X117641571Y-124912380D01*
X117546333Y-124864761D01*
X117498714Y-124817142D01*
X117451095Y-124721904D01*
X117403476Y-124531428D01*
X117403476Y-124293333D01*
X117451095Y-124102857D01*
X117498714Y-124007619D01*
X117546333Y-123960000D01*
X117641571Y-123912380D01*
X115522523Y-122086666D02*
X115998714Y-122086666D01*
X115427285Y-122372380D02*
X115760619Y-121372380D01*
X116093952Y-122372380D01*
X116951095Y-122372380D02*
X116379666Y-122372380D01*
X116665380Y-122372380D02*
X116665380Y-121372380D01*
X116570142Y-121515238D01*
X116474904Y-121610476D01*
X116379666Y-121658095D01*
X117903476Y-122372380D02*
X117332047Y-122372380D01*
X117617761Y-122372380D02*
X117617761Y-121372380D01*
X117522523Y-121515238D01*
X117427285Y-121610476D01*
X117332047Y-121658095D01*
X115522523Y-119546666D02*
X115998714Y-119546666D01*
X115427285Y-119832380D02*
X115760619Y-118832380D01*
X116093952Y-119832380D01*
X116951095Y-119832380D02*
X116379666Y-119832380D01*
X116665380Y-119832380D02*
X116665380Y-118832380D01*
X116570142Y-118975238D01*
X116474904Y-119070476D01*
X116379666Y-119118095D01*
X117570142Y-118832380D02*
X117665380Y-118832380D01*
X117760619Y-118880000D01*
X117808238Y-118927619D01*
X117855857Y-119022857D01*
X117903476Y-119213333D01*
X117903476Y-119451428D01*
X117855857Y-119641904D01*
X117808238Y-119737142D01*
X117760619Y-119784761D01*
X117665380Y-119832380D01*
X117570142Y-119832380D01*
X117474904Y-119784761D01*
X117427285Y-119737142D01*
X117379666Y-119641904D01*
X117332047Y-119451428D01*
X117332047Y-119213333D01*
X117379666Y-119022857D01*
X117427285Y-118927619D01*
X117474904Y-118880000D01*
X117570142Y-118832380D01*
X115490714Y-117006666D02*
X115966904Y-117006666D01*
X115395476Y-117292380D02*
X115728809Y-116292380D01*
X116062142Y-117292380D01*
X116443095Y-117292380D02*
X116633571Y-117292380D01*
X116728809Y-117244761D01*
X116776428Y-117197142D01*
X116871666Y-117054285D01*
X116919285Y-116863809D01*
X116919285Y-116482857D01*
X116871666Y-116387619D01*
X116824047Y-116340000D01*
X116728809Y-116292380D01*
X116538333Y-116292380D01*
X116443095Y-116340000D01*
X116395476Y-116387619D01*
X116347857Y-116482857D01*
X116347857Y-116720952D01*
X116395476Y-116816190D01*
X116443095Y-116863809D01*
X116538333Y-116911428D01*
X116728809Y-116911428D01*
X116824047Y-116863809D01*
X116871666Y-116816190D01*
X116919285Y-116720952D01*
X115490714Y-114466666D02*
X115966904Y-114466666D01*
X115395476Y-114752380D02*
X115728809Y-113752380D01*
X116062142Y-114752380D01*
X116538333Y-114180952D02*
X116443095Y-114133333D01*
X116395476Y-114085714D01*
X116347857Y-113990476D01*
X116347857Y-113942857D01*
X116395476Y-113847619D01*
X116443095Y-113800000D01*
X116538333Y-113752380D01*
X116728809Y-113752380D01*
X116824047Y-113800000D01*
X116871666Y-113847619D01*
X116919285Y-113942857D01*
X116919285Y-113990476D01*
X116871666Y-114085714D01*
X116824047Y-114133333D01*
X116728809Y-114180952D01*
X116538333Y-114180952D01*
X116443095Y-114228571D01*
X116395476Y-114276190D01*
X116347857Y-114371428D01*
X116347857Y-114561904D01*
X116395476Y-114657142D01*
X116443095Y-114704761D01*
X116538333Y-114752380D01*
X116728809Y-114752380D01*
X116824047Y-114704761D01*
X116871666Y-114657142D01*
X116919285Y-114561904D01*
X116919285Y-114371428D01*
X116871666Y-114276190D01*
X116824047Y-114228571D01*
X116728809Y-114180952D01*
X115490714Y-111799666D02*
X115966904Y-111799666D01*
X115395476Y-112085380D02*
X115728809Y-111085380D01*
X116062142Y-112085380D01*
X116300238Y-111085380D02*
X116966904Y-111085380D01*
X116538333Y-112085380D01*
X115490714Y-109259666D02*
X115966904Y-109259666D01*
X115395476Y-109545380D02*
X115728809Y-108545380D01*
X116062142Y-109545380D01*
X116824047Y-108545380D02*
X116633571Y-108545380D01*
X116538333Y-108593000D01*
X116490714Y-108640619D01*
X116395476Y-108783476D01*
X116347857Y-108973952D01*
X116347857Y-109354904D01*
X116395476Y-109450142D01*
X116443095Y-109497761D01*
X116538333Y-109545380D01*
X116728809Y-109545380D01*
X116824047Y-109497761D01*
X116871666Y-109450142D01*
X116919285Y-109354904D01*
X116919285Y-109116809D01*
X116871666Y-109021571D01*
X116824047Y-108973952D01*
X116728809Y-108926333D01*
X116538333Y-108926333D01*
X116443095Y-108973952D01*
X116395476Y-109021571D01*
X116347857Y-109116809D01*
X115490714Y-106719666D02*
X115966904Y-106719666D01*
X115395476Y-107005380D02*
X115728809Y-106005380D01*
X116062142Y-107005380D01*
X116871666Y-106005380D02*
X116395476Y-106005380D01*
X116347857Y-106481571D01*
X116395476Y-106433952D01*
X116490714Y-106386333D01*
X116728809Y-106386333D01*
X116824047Y-106433952D01*
X116871666Y-106481571D01*
X116919285Y-106576809D01*
X116919285Y-106814904D01*
X116871666Y-106910142D01*
X116824047Y-106957761D01*
X116728809Y-107005380D01*
X116490714Y-107005380D01*
X116395476Y-106957761D01*
X116347857Y-106910142D01*
X115490714Y-104306666D02*
X115966904Y-104306666D01*
X115395476Y-104592380D02*
X115728809Y-103592380D01*
X116062142Y-104592380D01*
X116824047Y-103925714D02*
X116824047Y-104592380D01*
X116585952Y-103544761D02*
X116347857Y-104259047D01*
X116966904Y-104259047D01*
X115800238Y-101528571D02*
X115943095Y-101576190D01*
X115990714Y-101623809D01*
X116038333Y-101719047D01*
X116038333Y-101861904D01*
X115990714Y-101957142D01*
X115943095Y-102004761D01*
X115847857Y-102052380D01*
X115466904Y-102052380D01*
X115466904Y-101052380D01*
X115800238Y-101052380D01*
X115895476Y-101100000D01*
X115943095Y-101147619D01*
X115990714Y-101242857D01*
X115990714Y-101338095D01*
X115943095Y-101433333D01*
X115895476Y-101480952D01*
X115800238Y-101528571D01*
X115466904Y-101528571D01*
X116514523Y-102052380D02*
X116705000Y-102052380D01*
X116800238Y-102004761D01*
X116847857Y-101957142D01*
X116943095Y-101814285D01*
X116990714Y-101623809D01*
X116990714Y-101242857D01*
X116943095Y-101147619D01*
X116895476Y-101100000D01*
X116800238Y-101052380D01*
X116609761Y-101052380D01*
X116514523Y-101100000D01*
X116466904Y-101147619D01*
X116419285Y-101242857D01*
X116419285Y-101480952D01*
X116466904Y-101576190D01*
X116514523Y-101623809D01*
X116609761Y-101671428D01*
X116800238Y-101671428D01*
X116895476Y-101623809D01*
X116943095Y-101576190D01*
X116990714Y-101480952D01*
X115800238Y-98988571D02*
X115943095Y-99036190D01*
X115990714Y-99083809D01*
X116038333Y-99179047D01*
X116038333Y-99321904D01*
X115990714Y-99417142D01*
X115943095Y-99464761D01*
X115847857Y-99512380D01*
X115466904Y-99512380D01*
X115466904Y-98512380D01*
X115800238Y-98512380D01*
X115895476Y-98560000D01*
X115943095Y-98607619D01*
X115990714Y-98702857D01*
X115990714Y-98798095D01*
X115943095Y-98893333D01*
X115895476Y-98940952D01*
X115800238Y-98988571D01*
X115466904Y-98988571D01*
X116609761Y-98940952D02*
X116514523Y-98893333D01*
X116466904Y-98845714D01*
X116419285Y-98750476D01*
X116419285Y-98702857D01*
X116466904Y-98607619D01*
X116514523Y-98560000D01*
X116609761Y-98512380D01*
X116800238Y-98512380D01*
X116895476Y-98560000D01*
X116943095Y-98607619D01*
X116990714Y-98702857D01*
X116990714Y-98750476D01*
X116943095Y-98845714D01*
X116895476Y-98893333D01*
X116800238Y-98940952D01*
X116609761Y-98940952D01*
X116514523Y-98988571D01*
X116466904Y-99036190D01*
X116419285Y-99131428D01*
X116419285Y-99321904D01*
X116466904Y-99417142D01*
X116514523Y-99464761D01*
X116609761Y-99512380D01*
X116800238Y-99512380D01*
X116895476Y-99464761D01*
X116943095Y-99417142D01*
X116990714Y-99321904D01*
X116990714Y-99131428D01*
X116943095Y-99036190D01*
X116895476Y-98988571D01*
X116800238Y-98940952D01*
X115490714Y-96686666D02*
X115966904Y-96686666D01*
X115395476Y-96972380D02*
X115728809Y-95972380D01*
X116062142Y-96972380D01*
X116300238Y-95972380D02*
X116919285Y-95972380D01*
X116585952Y-96353333D01*
X116728809Y-96353333D01*
X116824047Y-96400952D01*
X116871666Y-96448571D01*
X116919285Y-96543809D01*
X116919285Y-96781904D01*
X116871666Y-96877142D01*
X116824047Y-96924761D01*
X116728809Y-96972380D01*
X116443095Y-96972380D01*
X116347857Y-96924761D01*
X116300238Y-96877142D01*
X115490714Y-94146666D02*
X115966904Y-94146666D01*
X115395476Y-94432380D02*
X115728809Y-93432380D01*
X116062142Y-94432380D01*
X116347857Y-93527619D02*
X116395476Y-93480000D01*
X116490714Y-93432380D01*
X116728809Y-93432380D01*
X116824047Y-93480000D01*
X116871666Y-93527619D01*
X116919285Y-93622857D01*
X116919285Y-93718095D01*
X116871666Y-93860952D01*
X116300238Y-94432380D01*
X116919285Y-94432380D01*
X115490714Y-91606666D02*
X115966904Y-91606666D01*
X115395476Y-91892380D02*
X115728809Y-90892380D01*
X116062142Y-91892380D01*
X116919285Y-91892380D02*
X116347857Y-91892380D01*
X116633571Y-91892380D02*
X116633571Y-90892380D01*
X116538333Y-91035238D01*
X116443095Y-91130476D01*
X116347857Y-91178095D01*
X115490714Y-89066666D02*
X115966904Y-89066666D01*
X115395476Y-89352380D02*
X115728809Y-88352380D01*
X116062142Y-89352380D01*
X116585952Y-88352380D02*
X116681190Y-88352380D01*
X116776428Y-88400000D01*
X116824047Y-88447619D01*
X116871666Y-88542857D01*
X116919285Y-88733333D01*
X116919285Y-88971428D01*
X116871666Y-89161904D01*
X116824047Y-89257142D01*
X116776428Y-89304761D01*
X116681190Y-89352380D01*
X116585952Y-89352380D01*
X116490714Y-89304761D01*
X116443095Y-89257142D01*
X116395476Y-89161904D01*
X116347857Y-88971428D01*
X116347857Y-88733333D01*
X116395476Y-88542857D01*
X116443095Y-88447619D01*
X116490714Y-88400000D01*
X116585952Y-88352380D01*
X127643000Y-91273333D02*
X127595380Y-91368571D01*
X127595380Y-91511429D01*
X127643000Y-91654286D01*
X127738238Y-91749524D01*
X127833476Y-91797143D01*
X128023952Y-91844762D01*
X128166809Y-91844762D01*
X128357285Y-91797143D01*
X128452523Y-91749524D01*
X128547761Y-91654286D01*
X128595380Y-91511429D01*
X128595380Y-91416190D01*
X128547761Y-91273333D01*
X128500142Y-91225714D01*
X128166809Y-91225714D01*
X128166809Y-91416190D01*
X128595380Y-90797143D02*
X127595380Y-90797143D01*
X128595380Y-90225714D01*
X127595380Y-90225714D01*
X128595380Y-89749524D02*
X127595380Y-89749524D01*
X127595380Y-89511429D01*
X127643000Y-89368571D01*
X127738238Y-89273333D01*
X127833476Y-89225714D01*
X128023952Y-89178095D01*
X128166809Y-89178095D01*
X128357285Y-89225714D01*
X128452523Y-89273333D01*
X128547761Y-89368571D01*
X128595380Y-89511429D01*
X128595380Y-89749524D01*
X117435380Y-91749524D02*
X118435380Y-91416191D01*
X117435380Y-91082857D01*
X118340142Y-90178095D02*
X118387761Y-90225714D01*
X118435380Y-90368571D01*
X118435380Y-90463810D01*
X118387761Y-90606667D01*
X118292523Y-90701905D01*
X118197285Y-90749524D01*
X118006809Y-90797143D01*
X117863952Y-90797143D01*
X117673476Y-90749524D01*
X117578238Y-90701905D01*
X117483000Y-90606667D01*
X117435380Y-90463810D01*
X117435380Y-90368571D01*
X117483000Y-90225714D01*
X117530619Y-90178095D01*
X118340142Y-89178095D02*
X118387761Y-89225714D01*
X118435380Y-89368571D01*
X118435380Y-89463810D01*
X118387761Y-89606667D01*
X118292523Y-89701905D01*
X118197285Y-89749524D01*
X118006809Y-89797143D01*
X117863952Y-89797143D01*
X117673476Y-89749524D01*
X117578238Y-89701905D01*
X117483000Y-89606667D01*
X117435380Y-89463810D01*
X117435380Y-89368571D01*
X117483000Y-89225714D01*
X117530619Y-89178095D01*
X126081511Y-93416190D02*
X126129130Y-93273333D01*
X126129130Y-93035238D01*
X126081511Y-92940000D01*
X126033892Y-92892381D01*
X125938654Y-92844762D01*
X125843416Y-92844762D01*
X125748178Y-92892381D01*
X125700559Y-92940000D01*
X125652940Y-93035238D01*
X125605321Y-93225714D01*
X125557702Y-93320952D01*
X125510083Y-93368571D01*
X125414845Y-93416190D01*
X125319607Y-93416190D01*
X125224369Y-93368571D01*
X125176750Y-93320952D01*
X125129130Y-93225714D01*
X125129130Y-92987619D01*
X125176750Y-92844762D01*
X125129130Y-92511428D02*
X126129130Y-92273333D01*
X125414845Y-92082857D01*
X126129130Y-91892381D01*
X125129130Y-91654285D01*
X126129130Y-91273333D02*
X125129130Y-91273333D01*
X125129130Y-91035238D01*
X125176750Y-90892381D01*
X125271988Y-90797143D01*
X125367226Y-90749523D01*
X125557702Y-90701904D01*
X125700559Y-90701904D01*
X125891035Y-90749523D01*
X125986273Y-90797143D01*
X126081511Y-90892381D01*
X126129130Y-91035238D01*
X126129130Y-91273333D01*
X126129130Y-90273333D02*
X125129130Y-90273333D01*
X125129130Y-89606666D02*
X125129130Y-89416190D01*
X125176750Y-89320952D01*
X125271988Y-89225714D01*
X125462464Y-89178095D01*
X125795797Y-89178095D01*
X125986273Y-89225714D01*
X126081511Y-89320952D01*
X126129130Y-89416190D01*
X126129130Y-89606666D01*
X126081511Y-89701904D01*
X125986273Y-89797143D01*
X125795797Y-89844762D01*
X125462464Y-89844762D01*
X125271988Y-89797143D01*
X125176750Y-89701904D01*
X125129130Y-89606666D01*
X123615261Y-93701904D02*
X123662880Y-93559047D01*
X123662880Y-93320952D01*
X123615261Y-93225714D01*
X123567642Y-93178095D01*
X123472404Y-93130476D01*
X123377166Y-93130476D01*
X123281928Y-93178095D01*
X123234309Y-93225714D01*
X123186690Y-93320952D01*
X123139071Y-93511428D01*
X123091452Y-93606666D01*
X123043833Y-93654285D01*
X122948595Y-93701904D01*
X122853357Y-93701904D01*
X122758119Y-93654285D01*
X122710500Y-93606666D01*
X122662880Y-93511428D01*
X122662880Y-93273333D01*
X122710500Y-93130476D01*
X122662880Y-92797142D02*
X123662880Y-92559047D01*
X122948595Y-92368571D01*
X123662880Y-92178095D01*
X122662880Y-91940000D01*
X123567642Y-90987619D02*
X123615261Y-91035238D01*
X123662880Y-91178095D01*
X123662880Y-91273333D01*
X123615261Y-91416190D01*
X123520023Y-91511428D01*
X123424785Y-91559047D01*
X123234309Y-91606666D01*
X123091452Y-91606666D01*
X122900976Y-91559047D01*
X122805738Y-91511428D01*
X122710500Y-91416190D01*
X122662880Y-91273333D01*
X122662880Y-91178095D01*
X122710500Y-91035238D01*
X122758119Y-90987619D01*
X123662880Y-90082857D02*
X123662880Y-90559047D01*
X122662880Y-90559047D01*
X123662880Y-89749523D02*
X122662880Y-89749523D01*
X123662880Y-89178095D02*
X123091452Y-89606666D01*
X122662880Y-89178095D02*
X123234309Y-89749523D01*
X119829250Y-91701904D02*
X119829250Y-90701904D01*
X121196630Y-90892381D02*
X120720440Y-91225714D01*
X121196630Y-91463809D02*
X120196630Y-91463809D01*
X120196630Y-91082857D01*
X120244250Y-90987619D01*
X120291869Y-90940000D01*
X120387107Y-90892381D01*
X120529964Y-90892381D01*
X120625202Y-90940000D01*
X120672821Y-90987619D01*
X120720440Y-91082857D01*
X120720440Y-91463809D01*
X119829250Y-90701904D02*
X119829250Y-89749523D01*
X121149011Y-90511428D02*
X121196630Y-90368571D01*
X121196630Y-90130476D01*
X121149011Y-90035238D01*
X121101392Y-89987619D01*
X121006154Y-89940000D01*
X120910916Y-89940000D01*
X120815678Y-89987619D01*
X120768059Y-90035238D01*
X120720440Y-90130476D01*
X120672821Y-90320952D01*
X120625202Y-90416190D01*
X120577583Y-90463809D01*
X120482345Y-90511428D01*
X120387107Y-90511428D01*
X120291869Y-90463809D01*
X120244250Y-90416190D01*
X120196630Y-90320952D01*
X120196630Y-90082857D01*
X120244250Y-89940000D01*
X119829250Y-89749523D02*
X119829250Y-88987619D01*
X120196630Y-89654285D02*
X120196630Y-89082857D01*
X121196630Y-89368571D02*
X120196630Y-89368571D01*
G04 #@! TO.C,U1*
X122617802Y-105681674D02*
X121645530Y-104709402D01*
X128062524Y-110490000D02*
X127691293Y-110118769D01*
X122936000Y-115616524D02*
X122564769Y-115245293D01*
X117809476Y-110490000D02*
X118180707Y-110861231D01*
X122936000Y-105363476D02*
X123307231Y-105734707D01*
X117809476Y-110490000D02*
X118180707Y-110118769D01*
X122936000Y-115616524D02*
X123307231Y-115245293D01*
X128062524Y-110490000D02*
X127691293Y-110861231D01*
X122936000Y-105363476D02*
X122617802Y-105681674D01*
D10*
G04 #@! TO.C,C1*
X123483000Y-119515000D02*
X123483000Y-120515000D01*
X125183000Y-120515000D02*
X125183000Y-119515000D01*
G04 #@! TO.C,C2*
X127342000Y-100068000D02*
X127342000Y-99068000D01*
X125642000Y-99068000D02*
X125642000Y-100068000D01*
G04 #@! TO.C,C3*
X120626666Y-99068000D02*
X120626666Y-100068000D01*
X122326666Y-100068000D02*
X122326666Y-99068000D01*
G04 #@! TO.C,C4*
X119849000Y-100068000D02*
X119849000Y-99068000D01*
X118149000Y-99068000D02*
X118149000Y-100068000D01*
G04 #@! TO.C,R1*
X124864332Y-98968000D02*
X124864332Y-100168000D01*
X123104332Y-100168000D02*
X123104332Y-98968000D01*
G04 #@! TO.C,SW1*
X121336000Y-123666000D02*
X121336000Y-132366000D01*
X124536000Y-132366000D02*
X124536000Y-123666000D01*
X124536000Y-123666000D02*
X124136000Y-123666000D01*
X121736000Y-123666000D02*
X121336000Y-123666000D01*
X121336000Y-132366000D02*
X121736000Y-132366000D01*
X124536000Y-132366000D02*
X124136000Y-132366000D01*
G04 #@! TO.C,U1*
D11*
X122428095Y-103338380D02*
X122428095Y-104147904D01*
X122475714Y-104243142D01*
X122523333Y-104290761D01*
X122618571Y-104338380D01*
X122809047Y-104338380D01*
X122904285Y-104290761D01*
X122951904Y-104243142D01*
X122999523Y-104147904D01*
X122999523Y-103338380D01*
X123999523Y-104338380D02*
X123428095Y-104338380D01*
X123713809Y-104338380D02*
X123713809Y-103338380D01*
X123618571Y-103481238D01*
X123523333Y-103576476D01*
X123428095Y-103624095D01*
G04 #@! TO.C,C1*
X126198333Y-120372142D02*
X126150714Y-120419761D01*
X126007857Y-120467380D01*
X125912619Y-120467380D01*
X125769761Y-120419761D01*
X125674523Y-120324523D01*
X125626904Y-120229285D01*
X125579285Y-120038809D01*
X125579285Y-119895952D01*
X125626904Y-119705476D01*
X125674523Y-119610238D01*
X125769761Y-119515000D01*
X125912619Y-119467380D01*
X126007857Y-119467380D01*
X126150714Y-119515000D01*
X126198333Y-119562619D01*
X127150714Y-120467380D02*
X126579285Y-120467380D01*
X126865000Y-120467380D02*
X126865000Y-119467380D01*
X126769761Y-119610238D01*
X126674523Y-119705476D01*
X126579285Y-119753095D01*
G04 #@! TO.C,C2*
X126325333Y-97258142D02*
X126277714Y-97305761D01*
X126134857Y-97353380D01*
X126039619Y-97353380D01*
X125896761Y-97305761D01*
X125801523Y-97210523D01*
X125753904Y-97115285D01*
X125706285Y-96924809D01*
X125706285Y-96781952D01*
X125753904Y-96591476D01*
X125801523Y-96496238D01*
X125896761Y-96401000D01*
X126039619Y-96353380D01*
X126134857Y-96353380D01*
X126277714Y-96401000D01*
X126325333Y-96448619D01*
X126706285Y-96448619D02*
X126753904Y-96401000D01*
X126849142Y-96353380D01*
X127087238Y-96353380D01*
X127182476Y-96401000D01*
X127230095Y-96448619D01*
X127277714Y-96543857D01*
X127277714Y-96639095D01*
X127230095Y-96781952D01*
X126658666Y-97353380D01*
X127277714Y-97353380D01*
G04 #@! TO.C,C3*
X121372333Y-97258142D02*
X121324714Y-97305761D01*
X121181857Y-97353380D01*
X121086619Y-97353380D01*
X120943761Y-97305761D01*
X120848523Y-97210523D01*
X120800904Y-97115285D01*
X120753285Y-96924809D01*
X120753285Y-96781952D01*
X120800904Y-96591476D01*
X120848523Y-96496238D01*
X120943761Y-96401000D01*
X121086619Y-96353380D01*
X121181857Y-96353380D01*
X121324714Y-96401000D01*
X121372333Y-96448619D01*
X121705666Y-96353380D02*
X122324714Y-96353380D01*
X121991380Y-96734333D01*
X122134238Y-96734333D01*
X122229476Y-96781952D01*
X122277095Y-96829571D01*
X122324714Y-96924809D01*
X122324714Y-97162904D01*
X122277095Y-97258142D01*
X122229476Y-97305761D01*
X122134238Y-97353380D01*
X121848523Y-97353380D01*
X121753285Y-97305761D01*
X121705666Y-97258142D01*
G04 #@! TO.C,C4*
X118832333Y-97258142D02*
X118784714Y-97305761D01*
X118641857Y-97353380D01*
X118546619Y-97353380D01*
X118403761Y-97305761D01*
X118308523Y-97210523D01*
X118260904Y-97115285D01*
X118213285Y-96924809D01*
X118213285Y-96781952D01*
X118260904Y-96591476D01*
X118308523Y-96496238D01*
X118403761Y-96401000D01*
X118546619Y-96353380D01*
X118641857Y-96353380D01*
X118784714Y-96401000D01*
X118832333Y-96448619D01*
X119689476Y-96686714D02*
X119689476Y-97353380D01*
X119451380Y-96305761D02*
X119213285Y-97020047D01*
X119832333Y-97020047D01*
G04 #@! TO.C,R1*
X123785333Y-97353380D02*
X123452000Y-96877190D01*
X123213904Y-97353380D02*
X123213904Y-96353380D01*
X123594857Y-96353380D01*
X123690095Y-96401000D01*
X123737714Y-96448619D01*
X123785333Y-96543857D01*
X123785333Y-96686714D01*
X123737714Y-96781952D01*
X123690095Y-96829571D01*
X123594857Y-96877190D01*
X123213904Y-96877190D01*
X124737714Y-97353380D02*
X124166285Y-97353380D01*
X124452000Y-97353380D02*
X124452000Y-96353380D01*
X124356761Y-96496238D01*
X124261523Y-96591476D01*
X124166285Y-96639095D01*
G04 #@! TO.C,SW1*
X123340761Y-128714333D02*
X123388380Y-128571476D01*
X123388380Y-128333380D01*
X123340761Y-128238142D01*
X123293142Y-128190523D01*
X123197904Y-128142904D01*
X123102666Y-128142904D01*
X123007428Y-128190523D01*
X122959809Y-128238142D01*
X122912190Y-128333380D01*
X122864571Y-128523857D01*
X122816952Y-128619095D01*
X122769333Y-128666714D01*
X122674095Y-128714333D01*
X122578857Y-128714333D01*
X122483619Y-128666714D01*
X122436000Y-128619095D01*
X122388380Y-128523857D01*
X122388380Y-128285761D01*
X122436000Y-128142904D01*
X122388380Y-127809571D02*
X123388380Y-127571476D01*
X122674095Y-127381000D01*
X123388380Y-127190523D01*
X122388380Y-126952428D01*
X123388380Y-126047666D02*
X123388380Y-126619095D01*
X123388380Y-126333380D02*
X122388380Y-126333380D01*
X122531238Y-126428619D01*
X122626476Y-126523857D01*
X122674095Y-126619095D01*
G04 #@! TD*
M02*
