M48
INCH,TZ
T1C0.0157
T2C0.0394
%
G90
G05
T1
X46500Y-45100
X46850Y-41650
X47350Y-40050
X47900Y-42500
X48400Y-51250
X48950Y-46200
X49050Y-42500
X49675Y-43325
X49800Y-38150
X50350Y-42050
X50850Y-43750
T2
X45000Y-34000
X45000Y-35000
X45000Y-36000
X45000Y-37000
X45000Y-38000
X45000Y-39000
X45000Y-40000
X45000Y-41000
X45000Y-42000
X45000Y-43000
X45000Y-44000
X45000Y-45000
X45000Y-46000
X45000Y-47000
X45000Y-48000
X45000Y-49000
X45000Y-50000
X45000Y-51000
X45000Y-52000
X45000Y-53000
X51827Y-34000
X51827Y-35000
X51827Y-36000
X51827Y-37000
X51827Y-38000
X51827Y-39000
X51827Y-40000
X51827Y-41000
X51827Y-42000
X51827Y-43000
X51827Y-44000
X51827Y-45000
X51827Y-46000
X51827Y-47000
X51827Y-48000
X51827Y-49000
X51827Y-50000
X51827Y-51000
X51827Y-52000
X51827Y-53000
X51827Y-54000
X46440Y-34520
X47440Y-34520
X48440Y-34520
X49440Y-34520
X50440Y-34520
T0
M30
