G04 #@! TF.GenerationSoftware,KiCad,Pcbnew,(5.0.0)*
G04 #@! TF.CreationDate,2018-08-22T23:15:02+02:00*
G04 #@! TF.ProjectId,SAML_BreakoutBoard,53414D4C5F427265616B6F7574426F61,rev?*
G04 #@! TF.SameCoordinates,Original*
G04 #@! TF.FileFunction,Paste,Top*
G04 #@! TF.FilePolarity,Positive*
%FSLAX46Y46*%
G04 Gerber Fmt 4.6, Leading zero omitted, Abs format (unit mm)*
G04 Created by KiCad (PCBNEW (5.0.0)) date 08/22/18 23:15:02*
%MOMM*%
%LPD*%
G01*
G04 APERTURE LIST*
%ADD10C,0.250000*%
%ADD11C,0.100000*%
%ADD12R,1.250000X1.000000*%
%ADD13R,1.300000X0.700000*%
%ADD14R,1.000000X1.500000*%
G04 APERTURE END LIST*
D10*
G04 #@! TO.C,U1*
X124067371Y-105469542D03*
D11*
G36*
X123696140Y-106017550D02*
X123519363Y-105840773D01*
X124438602Y-104921534D01*
X124615379Y-105098311D01*
X123696140Y-106017550D01*
X123696140Y-106017550D01*
G37*
D10*
X124420924Y-105823095D03*
D11*
G36*
X124049693Y-106371103D02*
X123872916Y-106194326D01*
X124792155Y-105275087D01*
X124968932Y-105451864D01*
X124049693Y-106371103D01*
X124049693Y-106371103D01*
G37*
D10*
X124774478Y-106176649D03*
D11*
G36*
X124403247Y-106724657D02*
X124226470Y-106547880D01*
X125145709Y-105628641D01*
X125322486Y-105805418D01*
X124403247Y-106724657D01*
X124403247Y-106724657D01*
G37*
D10*
X125128031Y-106530202D03*
D11*
G36*
X124756800Y-107078210D02*
X124580023Y-106901433D01*
X125499262Y-105982194D01*
X125676039Y-106158971D01*
X124756800Y-107078210D01*
X124756800Y-107078210D01*
G37*
D10*
X125481584Y-106883755D03*
D11*
G36*
X125110353Y-107431763D02*
X124933576Y-107254986D01*
X125852815Y-106335747D01*
X126029592Y-106512524D01*
X125110353Y-107431763D01*
X125110353Y-107431763D01*
G37*
D10*
X125835138Y-107237309D03*
D11*
G36*
X125463907Y-107785317D02*
X125287130Y-107608540D01*
X126206369Y-106689301D01*
X126383146Y-106866078D01*
X125463907Y-107785317D01*
X125463907Y-107785317D01*
G37*
D10*
X126188691Y-107590862D03*
D11*
G36*
X125817460Y-108138870D02*
X125640683Y-107962093D01*
X126559922Y-107042854D01*
X126736699Y-107219631D01*
X125817460Y-108138870D01*
X125817460Y-108138870D01*
G37*
D10*
X126542245Y-107944416D03*
D11*
G36*
X126171014Y-108492424D02*
X125994237Y-108315647D01*
X126913476Y-107396408D01*
X127090253Y-107573185D01*
X126171014Y-108492424D01*
X126171014Y-108492424D01*
G37*
D10*
X126895798Y-108297969D03*
D11*
G36*
X126524567Y-108845977D02*
X126347790Y-108669200D01*
X127267029Y-107749961D01*
X127443806Y-107926738D01*
X126524567Y-108845977D01*
X126524567Y-108845977D01*
G37*
D10*
X127249351Y-108651522D03*
D11*
G36*
X126878120Y-109199530D02*
X126701343Y-109022753D01*
X127620582Y-108103514D01*
X127797359Y-108280291D01*
X126878120Y-109199530D01*
X126878120Y-109199530D01*
G37*
D10*
X127602905Y-109005076D03*
D11*
G36*
X127231674Y-109553084D02*
X127054897Y-109376307D01*
X127974136Y-108457068D01*
X128150913Y-108633845D01*
X127231674Y-109553084D01*
X127231674Y-109553084D01*
G37*
D10*
X127956458Y-109358629D03*
D11*
G36*
X127585227Y-109906637D02*
X127408450Y-109729860D01*
X128327689Y-108810621D01*
X128504466Y-108987398D01*
X127585227Y-109906637D01*
X127585227Y-109906637D01*
G37*
D10*
X127956458Y-111621371D03*
D11*
G36*
X127408450Y-111250140D02*
X127585227Y-111073363D01*
X128504466Y-111992602D01*
X128327689Y-112169379D01*
X127408450Y-111250140D01*
X127408450Y-111250140D01*
G37*
D10*
X127602905Y-111974924D03*
D11*
G36*
X127054897Y-111603693D02*
X127231674Y-111426916D01*
X128150913Y-112346155D01*
X127974136Y-112522932D01*
X127054897Y-111603693D01*
X127054897Y-111603693D01*
G37*
D10*
X127249351Y-112328478D03*
D11*
G36*
X126701343Y-111957247D02*
X126878120Y-111780470D01*
X127797359Y-112699709D01*
X127620582Y-112876486D01*
X126701343Y-111957247D01*
X126701343Y-111957247D01*
G37*
D10*
X126895798Y-112682031D03*
D11*
G36*
X126347790Y-112310800D02*
X126524567Y-112134023D01*
X127443806Y-113053262D01*
X127267029Y-113230039D01*
X126347790Y-112310800D01*
X126347790Y-112310800D01*
G37*
D10*
X126542245Y-113035584D03*
D11*
G36*
X125994237Y-112664353D02*
X126171014Y-112487576D01*
X127090253Y-113406815D01*
X126913476Y-113583592D01*
X125994237Y-112664353D01*
X125994237Y-112664353D01*
G37*
D10*
X126188691Y-113389138D03*
D11*
G36*
X125640683Y-113017907D02*
X125817460Y-112841130D01*
X126736699Y-113760369D01*
X126559922Y-113937146D01*
X125640683Y-113017907D01*
X125640683Y-113017907D01*
G37*
D10*
X125835138Y-113742691D03*
D11*
G36*
X125287130Y-113371460D02*
X125463907Y-113194683D01*
X126383146Y-114113922D01*
X126206369Y-114290699D01*
X125287130Y-113371460D01*
X125287130Y-113371460D01*
G37*
D10*
X125481584Y-114096245D03*
D11*
G36*
X124933576Y-113725014D02*
X125110353Y-113548237D01*
X126029592Y-114467476D01*
X125852815Y-114644253D01*
X124933576Y-113725014D01*
X124933576Y-113725014D01*
G37*
D10*
X125128031Y-114449798D03*
D11*
G36*
X124580023Y-114078567D02*
X124756800Y-113901790D01*
X125676039Y-114821029D01*
X125499262Y-114997806D01*
X124580023Y-114078567D01*
X124580023Y-114078567D01*
G37*
D10*
X124774478Y-114803351D03*
D11*
G36*
X124226470Y-114432120D02*
X124403247Y-114255343D01*
X125322486Y-115174582D01*
X125145709Y-115351359D01*
X124226470Y-114432120D01*
X124226470Y-114432120D01*
G37*
D10*
X124420924Y-115156905D03*
D11*
G36*
X123872916Y-114785674D02*
X124049693Y-114608897D01*
X124968932Y-115528136D01*
X124792155Y-115704913D01*
X123872916Y-114785674D01*
X123872916Y-114785674D01*
G37*
D10*
X124067371Y-115510458D03*
D11*
G36*
X123519363Y-115139227D02*
X123696140Y-114962450D01*
X124615379Y-115881689D01*
X124438602Y-116058466D01*
X123519363Y-115139227D01*
X123519363Y-115139227D01*
G37*
D10*
X121804629Y-115510458D03*
D11*
G36*
X121433398Y-116058466D02*
X121256621Y-115881689D01*
X122175860Y-114962450D01*
X122352637Y-115139227D01*
X121433398Y-116058466D01*
X121433398Y-116058466D01*
G37*
D10*
X121451076Y-115156905D03*
D11*
G36*
X121079845Y-115704913D02*
X120903068Y-115528136D01*
X121822307Y-114608897D01*
X121999084Y-114785674D01*
X121079845Y-115704913D01*
X121079845Y-115704913D01*
G37*
D10*
X121097522Y-114803351D03*
D11*
G36*
X120726291Y-115351359D02*
X120549514Y-115174582D01*
X121468753Y-114255343D01*
X121645530Y-114432120D01*
X120726291Y-115351359D01*
X120726291Y-115351359D01*
G37*
D10*
X120743969Y-114449798D03*
D11*
G36*
X120372738Y-114997806D02*
X120195961Y-114821029D01*
X121115200Y-113901790D01*
X121291977Y-114078567D01*
X120372738Y-114997806D01*
X120372738Y-114997806D01*
G37*
D10*
X120390416Y-114096245D03*
D11*
G36*
X120019185Y-114644253D02*
X119842408Y-114467476D01*
X120761647Y-113548237D01*
X120938424Y-113725014D01*
X120019185Y-114644253D01*
X120019185Y-114644253D01*
G37*
D10*
X120036862Y-113742691D03*
D11*
G36*
X119665631Y-114290699D02*
X119488854Y-114113922D01*
X120408093Y-113194683D01*
X120584870Y-113371460D01*
X119665631Y-114290699D01*
X119665631Y-114290699D01*
G37*
D10*
X119683309Y-113389138D03*
D11*
G36*
X119312078Y-113937146D02*
X119135301Y-113760369D01*
X120054540Y-112841130D01*
X120231317Y-113017907D01*
X119312078Y-113937146D01*
X119312078Y-113937146D01*
G37*
D10*
X119329755Y-113035584D03*
D11*
G36*
X118958524Y-113583592D02*
X118781747Y-113406815D01*
X119700986Y-112487576D01*
X119877763Y-112664353D01*
X118958524Y-113583592D01*
X118958524Y-113583592D01*
G37*
D10*
X118976202Y-112682031D03*
D11*
G36*
X118604971Y-113230039D02*
X118428194Y-113053262D01*
X119347433Y-112134023D01*
X119524210Y-112310800D01*
X118604971Y-113230039D01*
X118604971Y-113230039D01*
G37*
D10*
X118622649Y-112328478D03*
D11*
G36*
X118251418Y-112876486D02*
X118074641Y-112699709D01*
X118993880Y-111780470D01*
X119170657Y-111957247D01*
X118251418Y-112876486D01*
X118251418Y-112876486D01*
G37*
D10*
X118269095Y-111974924D03*
D11*
G36*
X117897864Y-112522932D02*
X117721087Y-112346155D01*
X118640326Y-111426916D01*
X118817103Y-111603693D01*
X117897864Y-112522932D01*
X117897864Y-112522932D01*
G37*
D10*
X117915542Y-111621371D03*
D11*
G36*
X117544311Y-112169379D02*
X117367534Y-111992602D01*
X118286773Y-111073363D01*
X118463550Y-111250140D01*
X117544311Y-112169379D01*
X117544311Y-112169379D01*
G37*
D10*
X117915542Y-109358629D03*
D11*
G36*
X117367534Y-108987398D02*
X117544311Y-108810621D01*
X118463550Y-109729860D01*
X118286773Y-109906637D01*
X117367534Y-108987398D01*
X117367534Y-108987398D01*
G37*
D10*
X118269095Y-109005076D03*
D11*
G36*
X117721087Y-108633845D02*
X117897864Y-108457068D01*
X118817103Y-109376307D01*
X118640326Y-109553084D01*
X117721087Y-108633845D01*
X117721087Y-108633845D01*
G37*
D10*
X118622649Y-108651522D03*
D11*
G36*
X118074641Y-108280291D02*
X118251418Y-108103514D01*
X119170657Y-109022753D01*
X118993880Y-109199530D01*
X118074641Y-108280291D01*
X118074641Y-108280291D01*
G37*
D10*
X118976202Y-108297969D03*
D11*
G36*
X118428194Y-107926738D02*
X118604971Y-107749961D01*
X119524210Y-108669200D01*
X119347433Y-108845977D01*
X118428194Y-107926738D01*
X118428194Y-107926738D01*
G37*
D10*
X119329755Y-107944416D03*
D11*
G36*
X118781747Y-107573185D02*
X118958524Y-107396408D01*
X119877763Y-108315647D01*
X119700986Y-108492424D01*
X118781747Y-107573185D01*
X118781747Y-107573185D01*
G37*
D10*
X119683309Y-107590862D03*
D11*
G36*
X119135301Y-107219631D02*
X119312078Y-107042854D01*
X120231317Y-107962093D01*
X120054540Y-108138870D01*
X119135301Y-107219631D01*
X119135301Y-107219631D01*
G37*
D10*
X120036862Y-107237309D03*
D11*
G36*
X119488854Y-106866078D02*
X119665631Y-106689301D01*
X120584870Y-107608540D01*
X120408093Y-107785317D01*
X119488854Y-106866078D01*
X119488854Y-106866078D01*
G37*
D10*
X120390416Y-106883755D03*
D11*
G36*
X119842408Y-106512524D02*
X120019185Y-106335747D01*
X120938424Y-107254986D01*
X120761647Y-107431763D01*
X119842408Y-106512524D01*
X119842408Y-106512524D01*
G37*
D10*
X120743969Y-106530202D03*
D11*
G36*
X120195961Y-106158971D02*
X120372738Y-105982194D01*
X121291977Y-106901433D01*
X121115200Y-107078210D01*
X120195961Y-106158971D01*
X120195961Y-106158971D01*
G37*
D10*
X121097522Y-106176649D03*
D11*
G36*
X120549514Y-105805418D02*
X120726291Y-105628641D01*
X121645530Y-106547880D01*
X121468753Y-106724657D01*
X120549514Y-105805418D01*
X120549514Y-105805418D01*
G37*
D10*
X121451076Y-105823095D03*
D11*
G36*
X120903068Y-105451864D02*
X121079845Y-105275087D01*
X121999084Y-106194326D01*
X121822307Y-106371103D01*
X120903068Y-105451864D01*
X120903068Y-105451864D01*
G37*
D10*
X121804629Y-105469542D03*
D11*
G36*
X121256621Y-105098311D02*
X121433398Y-104921534D01*
X122352637Y-105840773D01*
X122175860Y-106017550D01*
X121256621Y-105098311D01*
X121256621Y-105098311D01*
G37*
G04 #@! TD*
D12*
G04 #@! TO.C,C1*
X124333000Y-121015000D03*
X124333000Y-119015000D03*
G04 #@! TD*
G04 #@! TO.C,C2*
X126492000Y-98568000D03*
X126492000Y-100568000D03*
G04 #@! TD*
G04 #@! TO.C,C3*
X121476666Y-100568000D03*
X121476666Y-98568000D03*
G04 #@! TD*
G04 #@! TO.C,C4*
X118999000Y-98568000D03*
X118999000Y-100568000D03*
G04 #@! TD*
D13*
G04 #@! TO.C,R1*
X123984332Y-100518000D03*
X123984332Y-98618000D03*
G04 #@! TD*
D14*
G04 #@! TO.C,SW1*
X122936000Y-124066000D03*
X122936000Y-131966000D03*
G04 #@! TD*
M02*
