G04 #@! TF.GenerationSoftware,KiCad,Pcbnew,(5.0.0)*
G04 #@! TF.CreationDate,2018-08-22T23:15:02+02:00*
G04 #@! TF.ProjectId,SAML_BreakoutBoard,53414D4C5F427265616B6F7574426F61,rev?*
G04 #@! TF.SameCoordinates,Original*
G04 #@! TF.FileFunction,Soldermask,Top*
G04 #@! TF.FilePolarity,Negative*
%FSLAX46Y46*%
G04 Gerber Fmt 4.6, Leading zero omitted, Abs format (unit mm)*
G04 Created by KiCad (PCBNEW (5.0.0)) date 08/22/18 23:15:02*
%MOMM*%
%LPD*%
G01*
G04 APERTURE LIST*
%ADD10C,0.150000*%
%ADD11O,1.801600X1.801600*%
%ADD12R,1.801600X1.801600*%
%ADD13C,0.351600*%
%ADD14C,0.100000*%
%ADD15R,1.351600X1.101600*%
%ADD16R,1.401600X0.801600*%
%ADD17R,1.101600X1.601600*%
G04 APERTURE END LIST*
D10*
G36*
X113347500Y-136080500D02*
X121920000Y-136080500D01*
X124142500Y-138366500D01*
X113347500Y-138366500D01*
X113347500Y-136080500D01*
G37*
X113347500Y-136080500D02*
X121920000Y-136080500D01*
X124142500Y-138366500D01*
X113347500Y-138366500D01*
X113347500Y-136080500D01*
X122047000Y-136017000D02*
X124333000Y-138430000D01*
X124333000Y-138430000D02*
X113284000Y-138430000D01*
X113284000Y-136017000D02*
X113284000Y-138430000D01*
X122047000Y-136017000D02*
X113284000Y-136017000D01*
D11*
G04 #@! TO.C,J1*
X131640000Y-137160000D03*
X131640000Y-134620000D03*
X131640000Y-132080000D03*
X131640000Y-129540000D03*
X131640000Y-127000000D03*
X131640000Y-124460000D03*
X131640000Y-121920000D03*
X131640000Y-119380000D03*
X131640000Y-116840000D03*
X131640000Y-114300000D03*
X131640000Y-111760000D03*
X131640000Y-109220000D03*
X131640000Y-106680000D03*
X131640000Y-104140000D03*
X131640000Y-101600000D03*
X131640000Y-99060000D03*
X131640000Y-96520000D03*
X131640000Y-93980000D03*
X131640000Y-91440000D03*
X131640000Y-88900000D03*
D12*
X131640000Y-86360000D03*
G04 #@! TD*
D11*
G04 #@! TO.C,J2*
X114300000Y-86360000D03*
X114300000Y-88900000D03*
X114300000Y-91440000D03*
X114300000Y-93980000D03*
X114300000Y-96520000D03*
X114300000Y-99060000D03*
X114300000Y-101600000D03*
X114300000Y-104140000D03*
X114300000Y-106680000D03*
X114300000Y-109220000D03*
X114300000Y-111760000D03*
X114300000Y-114300000D03*
X114300000Y-116840000D03*
X114300000Y-119380000D03*
X114300000Y-121920000D03*
X114300000Y-124460000D03*
X114300000Y-127000000D03*
X114300000Y-129540000D03*
X114300000Y-132080000D03*
D12*
X114300000Y-134620000D03*
G04 #@! TD*
D11*
G04 #@! TO.C,J3*
X128117600Y-87680800D03*
X125577600Y-87680800D03*
X123037600Y-87680800D03*
X120497600Y-87680800D03*
D12*
X117957600Y-87680800D03*
G04 #@! TD*
D13*
G04 #@! TO.C,U1*
X124067371Y-105469542D03*
D14*
G36*
X123696140Y-106089392D02*
X123447521Y-105840773D01*
X124438602Y-104849692D01*
X124687221Y-105098311D01*
X123696140Y-106089392D01*
X123696140Y-106089392D01*
G37*
D13*
X124420924Y-105823095D03*
D14*
G36*
X124049693Y-106442945D02*
X123801074Y-106194326D01*
X124792155Y-105203245D01*
X125040774Y-105451864D01*
X124049693Y-106442945D01*
X124049693Y-106442945D01*
G37*
D13*
X124774478Y-106176649D03*
D14*
G36*
X124403247Y-106796499D02*
X124154628Y-106547880D01*
X125145709Y-105556799D01*
X125394328Y-105805418D01*
X124403247Y-106796499D01*
X124403247Y-106796499D01*
G37*
D13*
X125128031Y-106530202D03*
D14*
G36*
X124756800Y-107150052D02*
X124508181Y-106901433D01*
X125499262Y-105910352D01*
X125747881Y-106158971D01*
X124756800Y-107150052D01*
X124756800Y-107150052D01*
G37*
D13*
X125481584Y-106883755D03*
D14*
G36*
X125110353Y-107503605D02*
X124861734Y-107254986D01*
X125852815Y-106263905D01*
X126101434Y-106512524D01*
X125110353Y-107503605D01*
X125110353Y-107503605D01*
G37*
D13*
X125835138Y-107237309D03*
D14*
G36*
X125463907Y-107857159D02*
X125215288Y-107608540D01*
X126206369Y-106617459D01*
X126454988Y-106866078D01*
X125463907Y-107857159D01*
X125463907Y-107857159D01*
G37*
D13*
X126188691Y-107590862D03*
D14*
G36*
X125817460Y-108210712D02*
X125568841Y-107962093D01*
X126559922Y-106971012D01*
X126808541Y-107219631D01*
X125817460Y-108210712D01*
X125817460Y-108210712D01*
G37*
D13*
X126542245Y-107944416D03*
D14*
G36*
X126171014Y-108564266D02*
X125922395Y-108315647D01*
X126913476Y-107324566D01*
X127162095Y-107573185D01*
X126171014Y-108564266D01*
X126171014Y-108564266D01*
G37*
D13*
X126895798Y-108297969D03*
D14*
G36*
X126524567Y-108917819D02*
X126275948Y-108669200D01*
X127267029Y-107678119D01*
X127515648Y-107926738D01*
X126524567Y-108917819D01*
X126524567Y-108917819D01*
G37*
D13*
X127249351Y-108651522D03*
D14*
G36*
X126878120Y-109271372D02*
X126629501Y-109022753D01*
X127620582Y-108031672D01*
X127869201Y-108280291D01*
X126878120Y-109271372D01*
X126878120Y-109271372D01*
G37*
D13*
X127602905Y-109005076D03*
D14*
G36*
X127231674Y-109624926D02*
X126983055Y-109376307D01*
X127974136Y-108385226D01*
X128222755Y-108633845D01*
X127231674Y-109624926D01*
X127231674Y-109624926D01*
G37*
D13*
X127956458Y-109358629D03*
D14*
G36*
X127585227Y-109978479D02*
X127336608Y-109729860D01*
X128327689Y-108738779D01*
X128576308Y-108987398D01*
X127585227Y-109978479D01*
X127585227Y-109978479D01*
G37*
D13*
X127956458Y-111621371D03*
D14*
G36*
X127336608Y-111250140D02*
X127585227Y-111001521D01*
X128576308Y-111992602D01*
X128327689Y-112241221D01*
X127336608Y-111250140D01*
X127336608Y-111250140D01*
G37*
D13*
X127602905Y-111974924D03*
D14*
G36*
X126983055Y-111603693D02*
X127231674Y-111355074D01*
X128222755Y-112346155D01*
X127974136Y-112594774D01*
X126983055Y-111603693D01*
X126983055Y-111603693D01*
G37*
D13*
X127249351Y-112328478D03*
D14*
G36*
X126629501Y-111957247D02*
X126878120Y-111708628D01*
X127869201Y-112699709D01*
X127620582Y-112948328D01*
X126629501Y-111957247D01*
X126629501Y-111957247D01*
G37*
D13*
X126895798Y-112682031D03*
D14*
G36*
X126275948Y-112310800D02*
X126524567Y-112062181D01*
X127515648Y-113053262D01*
X127267029Y-113301881D01*
X126275948Y-112310800D01*
X126275948Y-112310800D01*
G37*
D13*
X126542245Y-113035584D03*
D14*
G36*
X125922395Y-112664353D02*
X126171014Y-112415734D01*
X127162095Y-113406815D01*
X126913476Y-113655434D01*
X125922395Y-112664353D01*
X125922395Y-112664353D01*
G37*
D13*
X126188691Y-113389138D03*
D14*
G36*
X125568841Y-113017907D02*
X125817460Y-112769288D01*
X126808541Y-113760369D01*
X126559922Y-114008988D01*
X125568841Y-113017907D01*
X125568841Y-113017907D01*
G37*
D13*
X125835138Y-113742691D03*
D14*
G36*
X125215288Y-113371460D02*
X125463907Y-113122841D01*
X126454988Y-114113922D01*
X126206369Y-114362541D01*
X125215288Y-113371460D01*
X125215288Y-113371460D01*
G37*
D13*
X125481584Y-114096245D03*
D14*
G36*
X124861734Y-113725014D02*
X125110353Y-113476395D01*
X126101434Y-114467476D01*
X125852815Y-114716095D01*
X124861734Y-113725014D01*
X124861734Y-113725014D01*
G37*
D13*
X125128031Y-114449798D03*
D14*
G36*
X124508181Y-114078567D02*
X124756800Y-113829948D01*
X125747881Y-114821029D01*
X125499262Y-115069648D01*
X124508181Y-114078567D01*
X124508181Y-114078567D01*
G37*
D13*
X124774478Y-114803351D03*
D14*
G36*
X124154628Y-114432120D02*
X124403247Y-114183501D01*
X125394328Y-115174582D01*
X125145709Y-115423201D01*
X124154628Y-114432120D01*
X124154628Y-114432120D01*
G37*
D13*
X124420924Y-115156905D03*
D14*
G36*
X123801074Y-114785674D02*
X124049693Y-114537055D01*
X125040774Y-115528136D01*
X124792155Y-115776755D01*
X123801074Y-114785674D01*
X123801074Y-114785674D01*
G37*
D13*
X124067371Y-115510458D03*
D14*
G36*
X123447521Y-115139227D02*
X123696140Y-114890608D01*
X124687221Y-115881689D01*
X124438602Y-116130308D01*
X123447521Y-115139227D01*
X123447521Y-115139227D01*
G37*
D13*
X121804629Y-115510458D03*
D14*
G36*
X121433398Y-116130308D02*
X121184779Y-115881689D01*
X122175860Y-114890608D01*
X122424479Y-115139227D01*
X121433398Y-116130308D01*
X121433398Y-116130308D01*
G37*
D13*
X121451076Y-115156905D03*
D14*
G36*
X121079845Y-115776755D02*
X120831226Y-115528136D01*
X121822307Y-114537055D01*
X122070926Y-114785674D01*
X121079845Y-115776755D01*
X121079845Y-115776755D01*
G37*
D13*
X121097522Y-114803351D03*
D14*
G36*
X120726291Y-115423201D02*
X120477672Y-115174582D01*
X121468753Y-114183501D01*
X121717372Y-114432120D01*
X120726291Y-115423201D01*
X120726291Y-115423201D01*
G37*
D13*
X120743969Y-114449798D03*
D14*
G36*
X120372738Y-115069648D02*
X120124119Y-114821029D01*
X121115200Y-113829948D01*
X121363819Y-114078567D01*
X120372738Y-115069648D01*
X120372738Y-115069648D01*
G37*
D13*
X120390416Y-114096245D03*
D14*
G36*
X120019185Y-114716095D02*
X119770566Y-114467476D01*
X120761647Y-113476395D01*
X121010266Y-113725014D01*
X120019185Y-114716095D01*
X120019185Y-114716095D01*
G37*
D13*
X120036862Y-113742691D03*
D14*
G36*
X119665631Y-114362541D02*
X119417012Y-114113922D01*
X120408093Y-113122841D01*
X120656712Y-113371460D01*
X119665631Y-114362541D01*
X119665631Y-114362541D01*
G37*
D13*
X119683309Y-113389138D03*
D14*
G36*
X119312078Y-114008988D02*
X119063459Y-113760369D01*
X120054540Y-112769288D01*
X120303159Y-113017907D01*
X119312078Y-114008988D01*
X119312078Y-114008988D01*
G37*
D13*
X119329755Y-113035584D03*
D14*
G36*
X118958524Y-113655434D02*
X118709905Y-113406815D01*
X119700986Y-112415734D01*
X119949605Y-112664353D01*
X118958524Y-113655434D01*
X118958524Y-113655434D01*
G37*
D13*
X118976202Y-112682031D03*
D14*
G36*
X118604971Y-113301881D02*
X118356352Y-113053262D01*
X119347433Y-112062181D01*
X119596052Y-112310800D01*
X118604971Y-113301881D01*
X118604971Y-113301881D01*
G37*
D13*
X118622649Y-112328478D03*
D14*
G36*
X118251418Y-112948328D02*
X118002799Y-112699709D01*
X118993880Y-111708628D01*
X119242499Y-111957247D01*
X118251418Y-112948328D01*
X118251418Y-112948328D01*
G37*
D13*
X118269095Y-111974924D03*
D14*
G36*
X117897864Y-112594774D02*
X117649245Y-112346155D01*
X118640326Y-111355074D01*
X118888945Y-111603693D01*
X117897864Y-112594774D01*
X117897864Y-112594774D01*
G37*
D13*
X117915542Y-111621371D03*
D14*
G36*
X117544311Y-112241221D02*
X117295692Y-111992602D01*
X118286773Y-111001521D01*
X118535392Y-111250140D01*
X117544311Y-112241221D01*
X117544311Y-112241221D01*
G37*
D13*
X117915542Y-109358629D03*
D14*
G36*
X117295692Y-108987398D02*
X117544311Y-108738779D01*
X118535392Y-109729860D01*
X118286773Y-109978479D01*
X117295692Y-108987398D01*
X117295692Y-108987398D01*
G37*
D13*
X118269095Y-109005076D03*
D14*
G36*
X117649245Y-108633845D02*
X117897864Y-108385226D01*
X118888945Y-109376307D01*
X118640326Y-109624926D01*
X117649245Y-108633845D01*
X117649245Y-108633845D01*
G37*
D13*
X118622649Y-108651522D03*
D14*
G36*
X118002799Y-108280291D02*
X118251418Y-108031672D01*
X119242499Y-109022753D01*
X118993880Y-109271372D01*
X118002799Y-108280291D01*
X118002799Y-108280291D01*
G37*
D13*
X118976202Y-108297969D03*
D14*
G36*
X118356352Y-107926738D02*
X118604971Y-107678119D01*
X119596052Y-108669200D01*
X119347433Y-108917819D01*
X118356352Y-107926738D01*
X118356352Y-107926738D01*
G37*
D13*
X119329755Y-107944416D03*
D14*
G36*
X118709905Y-107573185D02*
X118958524Y-107324566D01*
X119949605Y-108315647D01*
X119700986Y-108564266D01*
X118709905Y-107573185D01*
X118709905Y-107573185D01*
G37*
D13*
X119683309Y-107590862D03*
D14*
G36*
X119063459Y-107219631D02*
X119312078Y-106971012D01*
X120303159Y-107962093D01*
X120054540Y-108210712D01*
X119063459Y-107219631D01*
X119063459Y-107219631D01*
G37*
D13*
X120036862Y-107237309D03*
D14*
G36*
X119417012Y-106866078D02*
X119665631Y-106617459D01*
X120656712Y-107608540D01*
X120408093Y-107857159D01*
X119417012Y-106866078D01*
X119417012Y-106866078D01*
G37*
D13*
X120390416Y-106883755D03*
D14*
G36*
X119770566Y-106512524D02*
X120019185Y-106263905D01*
X121010266Y-107254986D01*
X120761647Y-107503605D01*
X119770566Y-106512524D01*
X119770566Y-106512524D01*
G37*
D13*
X120743969Y-106530202D03*
D14*
G36*
X120124119Y-106158971D02*
X120372738Y-105910352D01*
X121363819Y-106901433D01*
X121115200Y-107150052D01*
X120124119Y-106158971D01*
X120124119Y-106158971D01*
G37*
D13*
X121097522Y-106176649D03*
D14*
G36*
X120477672Y-105805418D02*
X120726291Y-105556799D01*
X121717372Y-106547880D01*
X121468753Y-106796499D01*
X120477672Y-105805418D01*
X120477672Y-105805418D01*
G37*
D13*
X121451076Y-105823095D03*
D14*
G36*
X120831226Y-105451864D02*
X121079845Y-105203245D01*
X122070926Y-106194326D01*
X121822307Y-106442945D01*
X120831226Y-105451864D01*
X120831226Y-105451864D01*
G37*
D13*
X121804629Y-105469542D03*
D14*
G36*
X121184779Y-105098311D02*
X121433398Y-104849692D01*
X122424479Y-105840773D01*
X122175860Y-106089392D01*
X121184779Y-105098311D01*
X121184779Y-105098311D01*
G37*
G04 #@! TD*
D15*
G04 #@! TO.C,C1*
X124333000Y-121015000D03*
X124333000Y-119015000D03*
G04 #@! TD*
G04 #@! TO.C,C2*
X126492000Y-98568000D03*
X126492000Y-100568000D03*
G04 #@! TD*
G04 #@! TO.C,C3*
X121476666Y-100568000D03*
X121476666Y-98568000D03*
G04 #@! TD*
G04 #@! TO.C,C4*
X118999000Y-98568000D03*
X118999000Y-100568000D03*
G04 #@! TD*
D16*
G04 #@! TO.C,R1*
X123984332Y-100518000D03*
X123984332Y-98618000D03*
G04 #@! TD*
D17*
G04 #@! TO.C,SW1*
X122936000Y-124066000D03*
X122936000Y-131966000D03*
G04 #@! TD*
M02*
